G04*
G04 #@! TF.GenerationSoftware,Altium Limited,Altium Designer,23.7.1 (13)*
G04*
G04 Layer_Physical_Order=3*
G04 Layer_Color=16440176*
%FSLAX43Y43*%
%MOMM*%
G71*
G04*
G04 #@! TF.SameCoordinates,B4B51515-0AC6-4D20-8248-00ACB9807E1E*
G04*
G04*
G04 #@! TF.FilePolarity,Positive*
G04*
G01*
G75*
%ADD11C,0.127*%
%ADD12C,0.025*%
%ADD13C,0.050*%
%ADD70C,0.125*%
%ADD73C,0.150*%
%ADD74C,0.300*%
%ADD78O,1.150X1.800*%
%ADD79O,1.450X2.000*%
%ADD80C,5.000*%
%ADD82C,1.500*%
%ADD84C,0.500*%
D11*
X35500Y-44750D02*
Y55250D01*
X-104500Y-44750D02*
X35500D01*
X-104500D02*
Y55250D01*
X35500D01*
X34500Y-43750D02*
X35500Y-44750D01*
X-9500Y-43750D02*
Y-38750D01*
X12250Y-43750D02*
X34500D01*
X5000D02*
Y-30000D01*
X-33500D02*
X20000D01*
X-49975Y-38725D02*
X-17750Y-38750D01*
X-50000Y-34250D02*
X-24975Y-34225D01*
X5000Y-30000D02*
X34500D01*
X-50000Y-43750D02*
X-33500D01*
X-50000D02*
Y-30000D01*
X-33500D01*
Y-43750D02*
X12250D01*
X-17750Y-38750D02*
X5000D01*
X-24975Y-34225D02*
X5000Y-34250D01*
X-17750Y-38750D02*
Y-34250D01*
X34500Y-43750D02*
X34500Y-30000D01*
X-33750Y-43750D02*
Y-34250D01*
X-25000Y-34250D02*
Y-30000D01*
X5000Y-38750D02*
X34500D01*
X5000Y-34250D02*
X34500D01*
X-103500Y-43750D02*
X-50000D01*
X-103500D02*
Y54250D01*
X34500D01*
Y-30000D02*
Y54250D01*
X-84500Y-44750D02*
Y-43750D01*
X-64500Y-44750D02*
Y-43750D01*
X-44500Y-44750D02*
Y-43750D01*
X-24500Y-44750D02*
Y-43750D01*
X-4500Y-44750D02*
Y-43750D01*
X15500Y-44750D02*
Y-43750D01*
X-104500Y-44750D02*
X-103500Y-43750D01*
X15500Y54250D02*
Y55250D01*
X-4500Y54250D02*
Y55250D01*
X-24500Y54250D02*
Y55250D01*
X-44500Y54250D02*
Y55250D01*
X-64500Y54250D02*
Y55250D01*
X-84500Y54250D02*
Y55250D01*
X-104500Y35250D02*
X-103500D01*
X-104500Y15250D02*
X-103500D01*
X-104500Y-4750D02*
X-103500D01*
X-104500Y-24750D02*
X-103500D01*
X34500Y54250D02*
X35500Y55250D01*
X-104500D02*
X-103500Y54250D01*
X34500Y-24750D02*
X35500D01*
X34500Y-4750D02*
X35500D01*
X34500Y15250D02*
X35500D01*
X34500Y35250D02*
X35500D01*
X-48365Y-37323D02*
X-48407Y-37238D01*
X-48492Y-37154D01*
X-48577Y-37111D01*
X-48746D01*
X-48831Y-37154D01*
X-48915Y-37238D01*
X-48958Y-37323D01*
X-49000Y-37450D01*
Y-37661D01*
X-48958Y-37788D01*
X-48915Y-37873D01*
X-48831Y-37958D01*
X-48746Y-38000D01*
X-48577D01*
X-48492Y-37958D01*
X-48407Y-37873D01*
X-48365Y-37788D01*
X-47523Y-37238D02*
X-47608Y-37154D01*
X-47735Y-37111D01*
X-47904D01*
X-48031Y-37154D01*
X-48115Y-37238D01*
Y-37323D01*
X-48073Y-37407D01*
X-48031Y-37450D01*
X-47946Y-37492D01*
X-47692Y-37577D01*
X-47608Y-37619D01*
X-47565Y-37661D01*
X-47523Y-37746D01*
Y-37873D01*
X-47608Y-37958D01*
X-47735Y-38000D01*
X-47904D01*
X-48031Y-37958D01*
X-48115Y-37873D01*
X-47324Y-37111D02*
Y-38000D01*
X-47095Y-37323D02*
Y-37280D01*
X-47053Y-37196D01*
X-47011Y-37154D01*
X-46926Y-37111D01*
X-46757D01*
X-46672Y-37154D01*
X-46630Y-37196D01*
X-46588Y-37280D01*
Y-37365D01*
X-46630Y-37450D01*
X-46714Y-37577D01*
X-47138Y-38000D01*
X-46545D01*
X-46346Y-37619D02*
X-45584D01*
X-45068Y-37111D02*
X-45153Y-37154D01*
X-45237Y-37238D01*
X-45280Y-37323D01*
X-45322Y-37450D01*
Y-37661D01*
X-45280Y-37788D01*
X-45237Y-37873D01*
X-45153Y-37958D01*
X-45068Y-38000D01*
X-44899D01*
X-44814Y-37958D01*
X-44729Y-37873D01*
X-44687Y-37788D01*
X-44645Y-37661D01*
Y-37450D01*
X-44687Y-37323D01*
X-44729Y-37238D01*
X-44814Y-37154D01*
X-44899Y-37111D01*
X-45068D01*
X-44437D02*
Y-38000D01*
Y-37111D02*
X-44057D01*
X-43930Y-37154D01*
X-43887Y-37196D01*
X-43845Y-37280D01*
Y-37365D01*
X-43887Y-37450D01*
X-43930Y-37492D01*
X-44057Y-37534D01*
X-44437D01*
X-44141D02*
X-43845Y-38000D01*
X-43646Y-37111D02*
Y-38000D01*
X-43460Y-37111D02*
Y-38000D01*
Y-37111D02*
X-42867Y-38000D01*
Y-37111D02*
Y-38000D01*
X-42622Y-37619D02*
X-41860D01*
X-41597Y-37111D02*
Y-38000D01*
Y-37111D02*
X-41005Y-38000D01*
Y-37111D02*
Y-38000D01*
X-40082D02*
X-40421Y-37111D01*
X-40759Y-38000D01*
X-40632Y-37704D02*
X-40209D01*
X-39875Y-37111D02*
Y-38000D01*
Y-37111D02*
X-39282Y-38000D01*
Y-37111D02*
Y-38000D01*
X-38783Y-37111D02*
X-38868Y-37154D01*
X-38952Y-37238D01*
X-38995Y-37323D01*
X-39037Y-37450D01*
Y-37661D01*
X-38995Y-37788D01*
X-38952Y-37873D01*
X-38868Y-37958D01*
X-38783Y-38000D01*
X-38614D01*
X-38529Y-37958D01*
X-38444Y-37873D01*
X-38402Y-37788D01*
X-38360Y-37661D01*
Y-37450D01*
X-38402Y-37323D01*
X-38444Y-37238D01*
X-38529Y-37154D01*
X-38614Y-37111D01*
X-38783D01*
X-49000Y-35577D02*
X-48619D01*
X-48492Y-35534D01*
X-48450Y-35492D01*
X-48407Y-35407D01*
Y-35280D01*
X-48450Y-35196D01*
X-48492Y-35154D01*
X-48619Y-35111D01*
X-49000D01*
Y-36000D01*
X-48209Y-35407D02*
Y-36000D01*
Y-35661D02*
X-48166Y-35534D01*
X-48082Y-35450D01*
X-47997Y-35407D01*
X-47870D01*
X-47578D02*
X-47663Y-35450D01*
X-47747Y-35534D01*
X-47790Y-35661D01*
Y-35746D01*
X-47747Y-35873D01*
X-47663Y-35958D01*
X-47578Y-36000D01*
X-47451D01*
X-47366Y-35958D01*
X-47282Y-35873D01*
X-47239Y-35746D01*
Y-35661D01*
X-47282Y-35534D01*
X-47366Y-35450D01*
X-47451Y-35407D01*
X-47578D01*
X-46875Y-35111D02*
X-46833Y-35154D01*
X-46791Y-35111D01*
X-46833Y-35069D01*
X-46875Y-35111D01*
X-46833Y-35407D02*
Y-36127D01*
X-46875Y-36254D01*
X-46960Y-36296D01*
X-47045D01*
X-46626Y-35661D02*
X-46118D01*
Y-35577D01*
X-46160Y-35492D01*
X-46202Y-35450D01*
X-46287Y-35407D01*
X-46414D01*
X-46499Y-35450D01*
X-46583Y-35534D01*
X-46626Y-35661D01*
Y-35746D01*
X-46583Y-35873D01*
X-46499Y-35958D01*
X-46414Y-36000D01*
X-46287D01*
X-46202Y-35958D01*
X-46118Y-35873D01*
X-45419Y-35534D02*
X-45504Y-35450D01*
X-45589Y-35407D01*
X-45716D01*
X-45800Y-35450D01*
X-45885Y-35534D01*
X-45927Y-35661D01*
Y-35746D01*
X-45885Y-35873D01*
X-45800Y-35958D01*
X-45716Y-36000D01*
X-45589D01*
X-45504Y-35958D01*
X-45419Y-35873D01*
X-45102Y-35111D02*
Y-35831D01*
X-45060Y-35958D01*
X-44975Y-36000D01*
X-44890D01*
X-45229Y-35407D02*
X-44933D01*
X-44721D02*
X-44763Y-35450D01*
X-44721Y-35492D01*
X-44679Y-35450D01*
X-44721Y-35407D01*
Y-35915D02*
X-44763Y-35958D01*
X-44721Y-36000D01*
X-44679Y-35958D01*
X-44721Y-35915D01*
X-17000Y-35111D02*
Y-36000D01*
X-16492D01*
X-15887Y-35407D02*
Y-36000D01*
Y-35534D02*
X-15972Y-35450D01*
X-16056Y-35407D01*
X-16183D01*
X-16268Y-35450D01*
X-16352Y-35534D01*
X-16395Y-35661D01*
Y-35746D01*
X-16352Y-35873D01*
X-16268Y-35958D01*
X-16183Y-36000D01*
X-16056D01*
X-15972Y-35958D01*
X-15887Y-35873D01*
X-15608Y-35407D02*
X-15354Y-36000D01*
X-15100Y-35407D02*
X-15354Y-36000D01*
X-15438Y-36169D01*
X-15523Y-36254D01*
X-15608Y-36296D01*
X-15650D01*
X-14952Y-35661D02*
X-14444D01*
Y-35577D01*
X-14486Y-35492D01*
X-14528Y-35450D01*
X-14613Y-35407D01*
X-14740D01*
X-14825Y-35450D01*
X-14909Y-35534D01*
X-14952Y-35661D01*
Y-35746D01*
X-14909Y-35873D01*
X-14825Y-35958D01*
X-14740Y-36000D01*
X-14613D01*
X-14528Y-35958D01*
X-14444Y-35873D01*
X-14253Y-35407D02*
Y-36000D01*
Y-35661D02*
X-14211Y-35534D01*
X-14126Y-35450D01*
X-14042Y-35407D01*
X-13915D01*
X-13136Y-35111D02*
Y-36000D01*
Y-35111D02*
X-12543Y-36000D01*
Y-35111D02*
Y-36000D01*
X-11790Y-35407D02*
Y-36000D01*
Y-35534D02*
X-11875Y-35450D01*
X-11959Y-35407D01*
X-12086D01*
X-12171Y-35450D01*
X-12255Y-35534D01*
X-12298Y-35661D01*
Y-35746D01*
X-12255Y-35873D01*
X-12171Y-35958D01*
X-12086Y-36000D01*
X-11959D01*
X-11875Y-35958D01*
X-11790Y-35873D01*
X-11553Y-35407D02*
Y-36000D01*
Y-35577D02*
X-11426Y-35450D01*
X-11341Y-35407D01*
X-11214D01*
X-11130Y-35450D01*
X-11087Y-35577D01*
Y-36000D01*
Y-35577D02*
X-10960Y-35450D01*
X-10876Y-35407D01*
X-10749D01*
X-10664Y-35450D01*
X-10622Y-35577D01*
Y-36000D01*
X-10342Y-35661D02*
X-9835D01*
Y-35577D01*
X-9877Y-35492D01*
X-9919Y-35450D01*
X-10004Y-35407D01*
X-10131D01*
X-10215Y-35450D01*
X-10300Y-35534D01*
X-10342Y-35661D01*
Y-35746D01*
X-10300Y-35873D01*
X-10215Y-35958D01*
X-10131Y-36000D01*
X-10004D01*
X-9919Y-35958D01*
X-9835Y-35873D01*
X-9602Y-35407D02*
X-9644Y-35450D01*
X-9602Y-35492D01*
X-9559Y-35450D01*
X-9602Y-35407D01*
Y-35915D02*
X-9644Y-35958D01*
X-9602Y-36000D01*
X-9559Y-35958D01*
X-9602Y-35915D01*
X-8407Y-42238D02*
X-8492Y-42154D01*
X-8619Y-42111D01*
X-8788D01*
X-8915Y-42154D01*
X-9000Y-42238D01*
Y-42323D01*
X-8958Y-42407D01*
X-8915Y-42450D01*
X-8831Y-42492D01*
X-8577Y-42577D01*
X-8492Y-42619D01*
X-8450Y-42661D01*
X-8407Y-42746D01*
Y-42873D01*
X-8492Y-42958D01*
X-8619Y-43000D01*
X-8788D01*
X-8915Y-42958D01*
X-9000Y-42873D01*
X-7574Y-42323D02*
X-7616Y-42238D01*
X-7701Y-42154D01*
X-7785Y-42111D01*
X-7955D01*
X-8039Y-42154D01*
X-8124Y-42238D01*
X-8166Y-42323D01*
X-8209Y-42450D01*
Y-42661D01*
X-8166Y-42788D01*
X-8124Y-42873D01*
X-8039Y-42958D01*
X-7955Y-43000D01*
X-7785D01*
X-7701Y-42958D01*
X-7616Y-42873D01*
X-7574Y-42788D01*
X-6647Y-43000D02*
X-6985Y-42111D01*
X-7324Y-43000D01*
X-7197Y-42704D02*
X-6774D01*
X-6439Y-42111D02*
Y-43000D01*
X-5931D01*
X-5284Y-42111D02*
X-5834D01*
Y-43000D01*
X-5284D01*
X-5834Y-42534D02*
X-5496D01*
X-5093Y-42407D02*
X-5136Y-42450D01*
X-5093Y-42492D01*
X-5051Y-42450D01*
X-5093Y-42407D01*
Y-42915D02*
X-5136Y-42958D01*
X-5093Y-43000D01*
X-5051Y-42958D01*
X-5093Y-42915D01*
X-4158Y-42280D02*
X-4073Y-42238D01*
X-3946Y-42111D01*
Y-43000D01*
X-3464Y-42915D02*
X-3506Y-42958D01*
X-3464Y-43000D01*
X-3422Y-42958D01*
X-3464Y-42915D01*
X-2973Y-42111D02*
X-3100Y-42154D01*
X-3185Y-42280D01*
X-3227Y-42492D01*
Y-42619D01*
X-3185Y-42831D01*
X-3100Y-42958D01*
X-2973Y-43000D01*
X-2888D01*
X-2761Y-42958D01*
X-2677Y-42831D01*
X-2634Y-42619D01*
Y-42492D01*
X-2677Y-42280D01*
X-2761Y-42154D01*
X-2888Y-42111D01*
X-2973D01*
X-2182D02*
X-2309Y-42154D01*
X-2393Y-42280D01*
X-2436Y-42492D01*
Y-42619D01*
X-2393Y-42831D01*
X-2309Y-42958D01*
X-2182Y-43000D01*
X-2097D01*
X-1970Y-42958D01*
X-1885Y-42831D01*
X-1843Y-42619D01*
Y-42492D01*
X-1885Y-42280D01*
X-1970Y-42154D01*
X-2097Y-42111D01*
X-2182D01*
X-1115Y-31073D02*
X-1157Y-30988D01*
X-1242Y-30904D01*
X-1327Y-30861D01*
X-1496D01*
X-1581Y-30904D01*
X-1665Y-30988D01*
X-1708Y-31073D01*
X-1750Y-31200D01*
Y-31411D01*
X-1708Y-31538D01*
X-1665Y-31623D01*
X-1581Y-31708D01*
X-1496Y-31750D01*
X-1327D01*
X-1242Y-31708D01*
X-1157Y-31623D01*
X-1115Y-31538D01*
Y-31411D01*
X-1327D02*
X-1115D01*
X-912D02*
X-404D01*
Y-31327D01*
X-446Y-31242D01*
X-489Y-31200D01*
X-573Y-31157D01*
X-700D01*
X-785Y-31200D01*
X-870Y-31284D01*
X-912Y-31411D01*
Y-31496D01*
X-870Y-31623D01*
X-785Y-31708D01*
X-700Y-31750D01*
X-573D01*
X-489Y-31708D01*
X-404Y-31623D01*
X-214Y-31157D02*
Y-31750D01*
Y-31411D02*
X-171Y-31284D01*
X-87Y-31200D01*
X-2Y-31157D01*
X125D01*
X205D02*
Y-31750D01*
Y-31327D02*
X332Y-31200D01*
X417Y-31157D01*
X544D01*
X629Y-31200D01*
X671Y-31327D01*
Y-31750D01*
Y-31327D02*
X798Y-31200D01*
X883Y-31157D01*
X1010D01*
X1094Y-31200D01*
X1137Y-31327D01*
Y-31750D01*
X1924Y-31157D02*
Y-31750D01*
Y-31284D02*
X1839Y-31200D01*
X1754Y-31157D01*
X1627D01*
X1543Y-31200D01*
X1458Y-31284D01*
X1416Y-31411D01*
Y-31496D01*
X1458Y-31623D01*
X1543Y-31708D01*
X1627Y-31750D01*
X1754D01*
X1839Y-31708D01*
X1924Y-31623D01*
X2161Y-31157D02*
Y-31750D01*
Y-31327D02*
X2288Y-31200D01*
X2372Y-31157D01*
X2499D01*
X2584Y-31200D01*
X2626Y-31327D01*
Y-31750D01*
X2901Y-31157D02*
X3155Y-31750D01*
X3409Y-31157D02*
X3155Y-31750D01*
X3071Y-31919D01*
X2986Y-32004D01*
X2901Y-32046D01*
X2859D01*
X-13657Y-32738D02*
X-13742Y-32654D01*
X-13869Y-32611D01*
X-14038D01*
X-14165Y-32654D01*
X-14250Y-32738D01*
Y-32823D01*
X-14208Y-32907D01*
X-14165Y-32950D01*
X-14081Y-32992D01*
X-13827Y-33077D01*
X-13742Y-33119D01*
X-13700Y-33161D01*
X-13657Y-33246D01*
Y-33373D01*
X-13742Y-33458D01*
X-13869Y-33500D01*
X-14038D01*
X-14165Y-33458D01*
X-14250Y-33373D01*
X-13332Y-32611D02*
Y-33331D01*
X-13289Y-33458D01*
X-13205Y-33500D01*
X-13120D01*
X-13459Y-32907D02*
X-13162D01*
X-12485D02*
Y-33500D01*
Y-33034D02*
X-12570Y-32950D01*
X-12654Y-32907D01*
X-12781D01*
X-12866Y-32950D01*
X-12951Y-33034D01*
X-12993Y-33161D01*
Y-33246D01*
X-12951Y-33373D01*
X-12866Y-33458D01*
X-12781Y-33500D01*
X-12654D01*
X-12570Y-33458D01*
X-12485Y-33373D01*
X-11740Y-32611D02*
Y-33500D01*
Y-33034D02*
X-11825Y-32950D01*
X-11909Y-32907D01*
X-12036D01*
X-12121Y-32950D01*
X-12206Y-33034D01*
X-12248Y-33161D01*
Y-33246D01*
X-12206Y-33373D01*
X-12121Y-33458D01*
X-12036Y-33500D01*
X-11909D01*
X-11825Y-33458D01*
X-11740Y-33373D01*
X-11376Y-32611D02*
Y-33331D01*
X-11334Y-33458D01*
X-11249Y-33500D01*
X-11165D01*
X-11503Y-32907D02*
X-11207D01*
X-11038D02*
Y-33500D01*
Y-33161D02*
X-10995Y-33034D01*
X-10911Y-32950D01*
X-10826Y-32907D01*
X-10699D01*
X-10407D02*
X-10492Y-32950D01*
X-10576Y-33034D01*
X-10619Y-33161D01*
Y-33246D01*
X-10576Y-33373D01*
X-10492Y-33458D01*
X-10407Y-33500D01*
X-10280D01*
X-10195Y-33458D01*
X-10111Y-33373D01*
X-10068Y-33246D01*
Y-33161D01*
X-10111Y-33034D01*
X-10195Y-32950D01*
X-10280Y-32907D01*
X-10407D01*
X-9366Y-32611D02*
Y-33500D01*
Y-33034D02*
X-9450Y-32950D01*
X-9535Y-32907D01*
X-9662D01*
X-9747Y-32950D01*
X-9831Y-33034D01*
X-9874Y-33161D01*
Y-33246D01*
X-9831Y-33373D01*
X-9747Y-33458D01*
X-9662Y-33500D01*
X-9535D01*
X-9450Y-33458D01*
X-9366Y-33373D01*
X-8621Y-32907D02*
Y-33500D01*
Y-33034D02*
X-8706Y-32950D01*
X-8790Y-32907D01*
X-8917D01*
X-9002Y-32950D01*
X-9086Y-33034D01*
X-9129Y-33161D01*
Y-33246D01*
X-9086Y-33373D01*
X-9002Y-33458D01*
X-8917Y-33500D01*
X-8790D01*
X-8706Y-33458D01*
X-8621Y-33373D01*
X-14204Y-30861D02*
Y-31750D01*
X-14500Y-30861D02*
X-13907D01*
X-13294Y-31157D02*
Y-31750D01*
Y-31284D02*
X-13378Y-31200D01*
X-13463Y-31157D01*
X-13590D01*
X-13675Y-31200D01*
X-13759Y-31284D01*
X-13802Y-31411D01*
Y-31496D01*
X-13759Y-31623D01*
X-13675Y-31708D01*
X-13590Y-31750D01*
X-13463D01*
X-13378Y-31708D01*
X-13294Y-31623D01*
X-12591Y-31284D02*
X-12634Y-31200D01*
X-12760Y-31157D01*
X-12887D01*
X-13014Y-31200D01*
X-13057Y-31284D01*
X-13014Y-31369D01*
X-12930Y-31411D01*
X-12718Y-31454D01*
X-12634Y-31496D01*
X-12591Y-31581D01*
Y-31623D01*
X-12634Y-31708D01*
X-12760Y-31750D01*
X-12887D01*
X-13014Y-31708D01*
X-13057Y-31623D01*
X-11897Y-31284D02*
X-11982Y-31200D01*
X-12066Y-31157D01*
X-12193D01*
X-12278Y-31200D01*
X-12363Y-31284D01*
X-12405Y-31411D01*
Y-31496D01*
X-12363Y-31623D01*
X-12278Y-31708D01*
X-12193Y-31750D01*
X-12066D01*
X-11982Y-31708D01*
X-11897Y-31623D01*
X-11707Y-30861D02*
Y-31750D01*
Y-31327D02*
X-11580Y-31200D01*
X-11495Y-31157D01*
X-11368D01*
X-11283Y-31200D01*
X-11241Y-31327D01*
Y-31750D01*
X-11008Y-31411D02*
X-10500D01*
Y-31327D01*
X-10543Y-31242D01*
X-10585Y-31200D01*
X-10670Y-31157D01*
X-10797D01*
X-10881Y-31200D01*
X-10966Y-31284D01*
X-11008Y-31411D01*
Y-31496D01*
X-10966Y-31623D01*
X-10881Y-31708D01*
X-10797Y-31750D01*
X-10670D01*
X-10585Y-31708D01*
X-10500Y-31623D01*
X-10310Y-31157D02*
Y-31750D01*
Y-31327D02*
X-10183Y-31200D01*
X-10098Y-31157D01*
X-9971D01*
X-9887Y-31200D01*
X-9844Y-31327D01*
Y-31750D01*
X-9612Y-31157D02*
X-9442Y-31750D01*
X-9273Y-31157D02*
X-9442Y-31750D01*
X-9273Y-31157D02*
X-9104Y-31750D01*
X-8934Y-31157D02*
X-9104Y-31750D01*
X-8727Y-31411D02*
X-8219D01*
Y-31327D01*
X-8261Y-31242D01*
X-8304Y-31200D01*
X-8388Y-31157D01*
X-8515D01*
X-8600Y-31200D01*
X-8685Y-31284D01*
X-8727Y-31411D01*
Y-31496D01*
X-8685Y-31623D01*
X-8600Y-31708D01*
X-8515Y-31750D01*
X-8388D01*
X-8304Y-31708D01*
X-8219Y-31623D01*
X-7521Y-31157D02*
Y-31835D01*
X-7563Y-31962D01*
X-7605Y-32004D01*
X-7690Y-32046D01*
X-7817D01*
X-7902Y-32004D01*
X-7521Y-31284D02*
X-7605Y-31200D01*
X-7690Y-31157D01*
X-7817D01*
X-7902Y-31200D01*
X-7986Y-31284D01*
X-8029Y-31411D01*
Y-31496D01*
X-7986Y-31623D01*
X-7902Y-31708D01*
X-7817Y-31750D01*
X-7690D01*
X-7605Y-31708D01*
X-7521Y-31623D01*
X-6543Y-31073D02*
Y-31030D01*
X-6501Y-30946D01*
X-6458Y-30904D01*
X-6374Y-30861D01*
X-6204D01*
X-6120Y-30904D01*
X-6077Y-30946D01*
X-6035Y-31030D01*
Y-31115D01*
X-6077Y-31200D01*
X-6162Y-31327D01*
X-6585Y-31750D01*
X-5993D01*
X-5286Y-31157D02*
Y-31750D01*
Y-31284D02*
X-5371Y-31200D01*
X-5455Y-31157D01*
X-5582D01*
X-5667Y-31200D01*
X-5752Y-31284D01*
X-5794Y-31411D01*
Y-31496D01*
X-5752Y-31623D01*
X-5667Y-31708D01*
X-5582Y-31750D01*
X-5455D01*
X-5371Y-31708D01*
X-5286Y-31623D01*
X-23073Y-31750D02*
X-23411Y-30861D01*
X-23750Y-31750D01*
X-23623Y-31454D02*
X-23200D01*
X-22865Y-30861D02*
Y-31750D01*
X-22679Y-30861D02*
Y-31750D01*
X-22408Y-30861D02*
X-22366Y-30904D01*
X-22324Y-30861D01*
X-22366Y-30819D01*
X-22408Y-30861D01*
X-22366Y-31157D02*
Y-31750D01*
X-22167Y-31411D02*
X-21659D01*
Y-31327D01*
X-21701Y-31242D01*
X-21744Y-31200D01*
X-21828Y-31157D01*
X-21955D01*
X-22040Y-31200D01*
X-22125Y-31284D01*
X-22167Y-31411D01*
Y-31496D01*
X-22125Y-31623D01*
X-22040Y-31708D01*
X-21955Y-31750D01*
X-21828D01*
X-21744Y-31708D01*
X-21659Y-31623D01*
X-20961Y-30861D02*
Y-31750D01*
Y-31284D02*
X-21045Y-31200D01*
X-21130Y-31157D01*
X-21257D01*
X-21342Y-31200D01*
X-21426Y-31284D01*
X-21469Y-31411D01*
Y-31496D01*
X-21426Y-31623D01*
X-21342Y-31708D01*
X-21257Y-31750D01*
X-21130D01*
X-21045Y-31708D01*
X-20961Y-31623D01*
X-20025Y-30861D02*
X-19687Y-31750D01*
X-19348Y-30861D02*
X-19687Y-31750D01*
X-19149Y-30861D02*
X-19107Y-30904D01*
X-19065Y-30861D01*
X-19107Y-30819D01*
X-19149Y-30861D01*
X-19107Y-31157D02*
Y-31750D01*
X-18443Y-31284D02*
X-18485Y-31200D01*
X-18612Y-31157D01*
X-18739D01*
X-18866Y-31200D01*
X-18908Y-31284D01*
X-18866Y-31369D01*
X-18781Y-31411D01*
X-18570Y-31454D01*
X-18485Y-31496D01*
X-18443Y-31581D01*
Y-31623D01*
X-18485Y-31708D01*
X-18612Y-31750D01*
X-18739D01*
X-18866Y-31708D01*
X-18908Y-31623D01*
X-18172Y-30861D02*
X-18129Y-30904D01*
X-18087Y-30861D01*
X-18129Y-30819D01*
X-18172Y-30861D01*
X-18129Y-31157D02*
Y-31750D01*
X-17719Y-31157D02*
X-17803Y-31200D01*
X-17888Y-31284D01*
X-17930Y-31411D01*
Y-31496D01*
X-17888Y-31623D01*
X-17803Y-31708D01*
X-17719Y-31750D01*
X-17592D01*
X-17507Y-31708D01*
X-17423Y-31623D01*
X-17380Y-31496D01*
Y-31411D01*
X-17423Y-31284D01*
X-17507Y-31200D01*
X-17592Y-31157D01*
X-17719D01*
X-17185D02*
Y-31750D01*
Y-31327D02*
X-17059Y-31200D01*
X-16974Y-31157D01*
X-16847D01*
X-16762Y-31200D01*
X-16720Y-31327D01*
Y-31750D01*
X-48958Y-42323D02*
Y-42280D01*
X-48915Y-42196D01*
X-48873Y-42154D01*
X-48788Y-42111D01*
X-48619D01*
X-48534Y-42154D01*
X-48492Y-42196D01*
X-48450Y-42280D01*
Y-42365D01*
X-48492Y-42450D01*
X-48577Y-42577D01*
X-49000Y-43000D01*
X-48407D01*
X-47997Y-42111D02*
X-48124Y-42154D01*
X-48166Y-42238D01*
Y-42323D01*
X-48124Y-42407D01*
X-48039Y-42450D01*
X-47870Y-42492D01*
X-47743Y-42534D01*
X-47658Y-42619D01*
X-47616Y-42704D01*
Y-42831D01*
X-47658Y-42915D01*
X-47701Y-42958D01*
X-47828Y-43000D01*
X-47997D01*
X-48124Y-42958D01*
X-48166Y-42915D01*
X-48209Y-42831D01*
Y-42704D01*
X-48166Y-42619D01*
X-48082Y-42534D01*
X-47955Y-42492D01*
X-47785Y-42450D01*
X-47701Y-42407D01*
X-47658Y-42323D01*
Y-42238D01*
X-47701Y-42154D01*
X-47828Y-42111D01*
X-47997D01*
X-47375Y-42915D02*
X-47417Y-42958D01*
X-47375Y-43000D01*
X-47332Y-42958D01*
X-47375Y-42915D01*
X-46884Y-42111D02*
X-47011Y-42154D01*
X-47095Y-42280D01*
X-47138Y-42492D01*
Y-42619D01*
X-47095Y-42831D01*
X-47011Y-42958D01*
X-46884Y-43000D01*
X-46799D01*
X-46672Y-42958D01*
X-46588Y-42831D01*
X-46545Y-42619D01*
Y-42492D01*
X-46588Y-42280D01*
X-46672Y-42154D01*
X-46799Y-42111D01*
X-46884D01*
X-45754D02*
X-46177Y-43000D01*
X-46346Y-42111D02*
X-45754D01*
X-45512Y-42915D02*
X-45555Y-42958D01*
X-45512Y-43000D01*
X-45470Y-42958D01*
X-45512Y-42915D01*
X-45233Y-42323D02*
Y-42280D01*
X-45191Y-42196D01*
X-45148Y-42154D01*
X-45064Y-42111D01*
X-44895D01*
X-44810Y-42154D01*
X-44768Y-42196D01*
X-44725Y-42280D01*
Y-42365D01*
X-44768Y-42450D01*
X-44852Y-42577D01*
X-45275Y-43000D01*
X-44683D01*
X-44230Y-42111D02*
X-44357Y-42154D01*
X-44442Y-42280D01*
X-44484Y-42492D01*
Y-42619D01*
X-44442Y-42831D01*
X-44357Y-42958D01*
X-44230Y-43000D01*
X-44145D01*
X-44018Y-42958D01*
X-43934Y-42831D01*
X-43891Y-42619D01*
Y-42492D01*
X-43934Y-42280D01*
X-44018Y-42154D01*
X-44145Y-42111D01*
X-44230D01*
X-43650Y-42323D02*
Y-42280D01*
X-43608Y-42196D01*
X-43566Y-42154D01*
X-43481Y-42111D01*
X-43312D01*
X-43227Y-42154D01*
X-43185Y-42196D01*
X-43142Y-42280D01*
Y-42365D01*
X-43185Y-42450D01*
X-43269Y-42577D01*
X-43693Y-43000D01*
X-43100D01*
X-42816Y-42111D02*
X-42351D01*
X-42605Y-42450D01*
X-42478D01*
X-42393Y-42492D01*
X-42351Y-42534D01*
X-42309Y-42661D01*
Y-42746D01*
X-42351Y-42873D01*
X-42436Y-42958D01*
X-42562Y-43000D01*
X-42689D01*
X-42816Y-42958D01*
X-42859Y-42915D01*
X-42901Y-42831D01*
X-49000Y-39611D02*
Y-40500D01*
Y-39611D02*
X-48704D01*
X-48577Y-39654D01*
X-48492Y-39738D01*
X-48450Y-39823D01*
X-48407Y-39950D01*
Y-40161D01*
X-48450Y-40288D01*
X-48492Y-40373D01*
X-48577Y-40458D01*
X-48704Y-40500D01*
X-49000D01*
X-47701Y-39907D02*
Y-40500D01*
Y-40034D02*
X-47785Y-39950D01*
X-47870Y-39907D01*
X-47997D01*
X-48082Y-39950D01*
X-48166Y-40034D01*
X-48209Y-40161D01*
Y-40246D01*
X-48166Y-40373D01*
X-48082Y-40458D01*
X-47997Y-40500D01*
X-47870D01*
X-47785Y-40458D01*
X-47701Y-40373D01*
X-47337Y-39611D02*
Y-40331D01*
X-47294Y-40458D01*
X-47210Y-40500D01*
X-47125D01*
X-47464Y-39907D02*
X-47167D01*
X-46998Y-40161D02*
X-46490D01*
Y-40077D01*
X-46533Y-39992D01*
X-46575Y-39950D01*
X-46659Y-39907D01*
X-46786D01*
X-46871Y-39950D01*
X-46956Y-40034D01*
X-46998Y-40161D01*
Y-40246D01*
X-46956Y-40373D01*
X-46871Y-40458D01*
X-46786Y-40500D01*
X-46659D01*
X-46575Y-40458D01*
X-46490Y-40373D01*
X-46257Y-39907D02*
X-46300Y-39950D01*
X-46257Y-39992D01*
X-46215Y-39950D01*
X-46257Y-39907D01*
Y-40415D02*
X-46300Y-40458D01*
X-46257Y-40500D01*
X-46215Y-40458D01*
X-46257Y-40415D01*
X-32365Y-42323D02*
X-32407Y-42238D01*
X-32492Y-42154D01*
X-32577Y-42111D01*
X-32746D01*
X-32831Y-42154D01*
X-32915Y-42238D01*
X-32958Y-42323D01*
X-33000Y-42450D01*
Y-42661D01*
X-32958Y-42788D01*
X-32915Y-42873D01*
X-32831Y-42958D01*
X-32746Y-43000D01*
X-32577D01*
X-32492Y-42958D01*
X-32407Y-42873D01*
X-32365Y-42788D01*
X-31523Y-42238D02*
X-31608Y-42154D01*
X-31735Y-42111D01*
X-31904D01*
X-32031Y-42154D01*
X-32115Y-42238D01*
Y-42323D01*
X-32073Y-42407D01*
X-32031Y-42450D01*
X-31946Y-42492D01*
X-31692Y-42577D01*
X-31608Y-42619D01*
X-31565Y-42661D01*
X-31523Y-42746D01*
Y-42873D01*
X-31608Y-42958D01*
X-31735Y-43000D01*
X-31904D01*
X-32031Y-42958D01*
X-32115Y-42873D01*
X-31324Y-42111D02*
Y-43000D01*
X-31095Y-42323D02*
Y-42280D01*
X-31053Y-42196D01*
X-31011Y-42154D01*
X-30926Y-42111D01*
X-30757D01*
X-30672Y-42154D01*
X-30630Y-42196D01*
X-30588Y-42280D01*
Y-42365D01*
X-30630Y-42450D01*
X-30714Y-42577D01*
X-31138Y-43000D01*
X-30545D01*
X-30346Y-42619D02*
X-29584D01*
X-29068Y-42111D02*
X-29153Y-42154D01*
X-29237Y-42238D01*
X-29280Y-42323D01*
X-29322Y-42450D01*
Y-42661D01*
X-29280Y-42788D01*
X-29237Y-42873D01*
X-29153Y-42958D01*
X-29068Y-43000D01*
X-28899D01*
X-28814Y-42958D01*
X-28729Y-42873D01*
X-28687Y-42788D01*
X-28645Y-42661D01*
Y-42450D01*
X-28687Y-42323D01*
X-28729Y-42238D01*
X-28814Y-42154D01*
X-28899Y-42111D01*
X-29068D01*
X-28437D02*
Y-43000D01*
Y-42111D02*
X-28057D01*
X-27930Y-42154D01*
X-27887Y-42196D01*
X-27845Y-42280D01*
Y-42365D01*
X-27887Y-42450D01*
X-27930Y-42492D01*
X-28057Y-42534D01*
X-28437D01*
X-28141D02*
X-27845Y-43000D01*
X-27646Y-42111D02*
Y-43000D01*
X-27460Y-42111D02*
Y-43000D01*
Y-42111D02*
X-26867Y-43000D01*
Y-42111D02*
Y-43000D01*
X-26622Y-42619D02*
X-25860D01*
X-25597Y-42111D02*
Y-43000D01*
Y-42111D02*
X-25005Y-43000D01*
Y-42111D02*
Y-43000D01*
X-24082D02*
X-24421Y-42111D01*
X-24759Y-43000D01*
X-24632Y-42704D02*
X-24209D01*
X-23875Y-42111D02*
Y-43000D01*
Y-42111D02*
X-23282Y-43000D01*
Y-42111D02*
Y-43000D01*
X-22783Y-42111D02*
X-22868Y-42154D01*
X-22952Y-42238D01*
X-22995Y-42323D01*
X-23037Y-42450D01*
Y-42661D01*
X-22995Y-42788D01*
X-22952Y-42873D01*
X-22868Y-42958D01*
X-22783Y-43000D01*
X-22614D01*
X-22529Y-42958D01*
X-22444Y-42873D01*
X-22402Y-42788D01*
X-22360Y-42661D01*
Y-42450D01*
X-22402Y-42323D01*
X-22444Y-42238D01*
X-22529Y-42154D01*
X-22614Y-42111D01*
X-22783D01*
X-22152Y-43296D02*
X-21475D01*
X-21361Y-42111D02*
Y-43000D01*
Y-42111D02*
X-20980D01*
X-20853Y-42154D01*
X-20811Y-42196D01*
X-20768Y-42280D01*
Y-42365D01*
X-20811Y-42450D01*
X-20853Y-42492D01*
X-20980Y-42534D01*
X-21361D01*
X-21065D02*
X-20768Y-43000D01*
X-20569Y-42661D02*
X-20061D01*
Y-42577D01*
X-20104Y-42492D01*
X-20146Y-42450D01*
X-20231Y-42407D01*
X-20358D01*
X-20442Y-42450D01*
X-20527Y-42534D01*
X-20569Y-42661D01*
Y-42746D01*
X-20527Y-42873D01*
X-20442Y-42958D01*
X-20358Y-43000D01*
X-20231D01*
X-20146Y-42958D01*
X-20061Y-42873D01*
X-19871Y-42407D02*
X-19617Y-43000D01*
X-19363Y-42407D02*
X-19617Y-43000D01*
X-18965Y-42111D02*
X-19092Y-42154D01*
X-19177Y-42280D01*
X-19219Y-42492D01*
Y-42619D01*
X-19177Y-42831D01*
X-19092Y-42958D01*
X-18965Y-43000D01*
X-18881D01*
X-18754Y-42958D01*
X-18669Y-42831D01*
X-18627Y-42619D01*
Y-42492D01*
X-18669Y-42280D01*
X-18754Y-42154D01*
X-18881Y-42111D01*
X-18965D01*
X-18428Y-42280D02*
X-18343Y-42238D01*
X-18216Y-42111D01*
Y-43000D01*
X-17734Y-42915D02*
X-17776Y-42958D01*
X-17734Y-43000D01*
X-17691Y-42958D01*
X-17734Y-42915D01*
X-17497Y-42577D02*
X-17116D01*
X-16989Y-42534D01*
X-16946Y-42492D01*
X-16904Y-42407D01*
Y-42280D01*
X-16946Y-42196D01*
X-16989Y-42154D01*
X-17116Y-42111D01*
X-17497D01*
Y-43000D01*
X-16197Y-42534D02*
X-16282Y-42450D01*
X-16367Y-42407D01*
X-16494D01*
X-16578Y-42450D01*
X-16663Y-42534D01*
X-16705Y-42661D01*
Y-42746D01*
X-16663Y-42873D01*
X-16578Y-42958D01*
X-16494Y-43000D01*
X-16367D01*
X-16282Y-42958D01*
X-16197Y-42873D01*
X-16007Y-42111D02*
Y-43000D01*
Y-42534D02*
X-15922Y-42450D01*
X-15838Y-42407D01*
X-15711D01*
X-15626Y-42450D01*
X-15541Y-42534D01*
X-15499Y-42661D01*
Y-42746D01*
X-15541Y-42873D01*
X-15626Y-42958D01*
X-15711Y-43000D01*
X-15838D01*
X-15922Y-42958D01*
X-16007Y-42873D01*
X-15308Y-42111D02*
Y-43000D01*
Y-42111D02*
X-15012D01*
X-14885Y-42154D01*
X-14801Y-42238D01*
X-14758Y-42323D01*
X-14716Y-42450D01*
Y-42661D01*
X-14758Y-42788D01*
X-14801Y-42873D01*
X-14885Y-42958D01*
X-15012Y-43000D01*
X-15308D01*
X-14305Y-42407D02*
X-14390Y-42450D01*
X-14475Y-42534D01*
X-14517Y-42661D01*
Y-42746D01*
X-14475Y-42873D01*
X-14390Y-42958D01*
X-14305Y-43000D01*
X-14178D01*
X-14094Y-42958D01*
X-14009Y-42873D01*
X-13967Y-42746D01*
Y-42661D01*
X-14009Y-42534D01*
X-14094Y-42450D01*
X-14178Y-42407D01*
X-14305D01*
X-13264Y-42534D02*
X-13349Y-42450D01*
X-13433Y-42407D01*
X-13560D01*
X-13645Y-42450D01*
X-13730Y-42534D01*
X-13772Y-42661D01*
Y-42746D01*
X-13730Y-42873D01*
X-13645Y-42958D01*
X-13560Y-43000D01*
X-13433D01*
X-13349Y-42958D01*
X-13264Y-42873D01*
X-48704Y-30611D02*
Y-31500D01*
X-49000Y-30611D02*
X-48407D01*
X-48217D02*
X-48175Y-30654D01*
X-48132Y-30611D01*
X-48175Y-30569D01*
X-48217Y-30611D01*
X-48175Y-30907D02*
Y-31500D01*
X-47849Y-30611D02*
Y-31331D01*
X-47806Y-31458D01*
X-47722Y-31500D01*
X-47637D01*
X-47976Y-30907D02*
X-47679D01*
X-47510Y-30611D02*
Y-31500D01*
X-47324Y-31161D02*
X-46816D01*
Y-31077D01*
X-46858Y-30992D01*
X-46901Y-30950D01*
X-46985Y-30907D01*
X-47112D01*
X-47197Y-30950D01*
X-47282Y-31034D01*
X-47324Y-31161D01*
Y-31246D01*
X-47282Y-31373D01*
X-47197Y-31458D01*
X-47112Y-31500D01*
X-46985D01*
X-46901Y-31458D01*
X-46816Y-31373D01*
X-46583Y-30907D02*
X-46626Y-30950D01*
X-46583Y-30992D01*
X-46541Y-30950D01*
X-46583Y-30907D01*
Y-31415D02*
X-46626Y-31458D01*
X-46583Y-31500D01*
X-46541Y-31458D01*
X-46583Y-31415D01*
X-33000Y-35577D02*
X-32619D01*
X-32492Y-35534D01*
X-32450Y-35492D01*
X-32407Y-35407D01*
Y-35280D01*
X-32450Y-35196D01*
X-32492Y-35154D01*
X-32619Y-35111D01*
X-33000D01*
Y-36000D01*
X-31574Y-35323D02*
X-31616Y-35238D01*
X-31701Y-35154D01*
X-31785Y-35111D01*
X-31955D01*
X-32039Y-35154D01*
X-32124Y-35238D01*
X-32166Y-35323D01*
X-32209Y-35450D01*
Y-35661D01*
X-32166Y-35788D01*
X-32124Y-35873D01*
X-32039Y-35958D01*
X-31955Y-36000D01*
X-31785D01*
X-31701Y-35958D01*
X-31616Y-35873D01*
X-31574Y-35788D01*
X-31324Y-35111D02*
Y-36000D01*
Y-35111D02*
X-30943D01*
X-30816Y-35154D01*
X-30774Y-35196D01*
X-30731Y-35280D01*
Y-35365D01*
X-30774Y-35450D01*
X-30816Y-35492D01*
X-30943Y-35534D01*
X-31324D02*
X-30943D01*
X-30816Y-35577D01*
X-30774Y-35619D01*
X-30731Y-35704D01*
Y-35831D01*
X-30774Y-35915D01*
X-30816Y-35958D01*
X-30943Y-36000D01*
X-31324D01*
X-29834Y-35111D02*
Y-36000D01*
Y-35111D02*
X-29538D01*
X-29411Y-35154D01*
X-29326Y-35238D01*
X-29284Y-35323D01*
X-29242Y-35450D01*
Y-35661D01*
X-29284Y-35788D01*
X-29326Y-35873D01*
X-29411Y-35958D01*
X-29538Y-36000D01*
X-29834D01*
X-29043Y-35661D02*
X-28535D01*
Y-35577D01*
X-28577Y-35492D01*
X-28619Y-35450D01*
X-28704Y-35407D01*
X-28831D01*
X-28916Y-35450D01*
X-29000Y-35534D01*
X-29043Y-35661D01*
Y-35746D01*
X-29000Y-35873D01*
X-28916Y-35958D01*
X-28831Y-36000D01*
X-28704D01*
X-28619Y-35958D01*
X-28535Y-35873D01*
X-27879Y-35534D02*
X-27921Y-35450D01*
X-28048Y-35407D01*
X-28175D01*
X-28302Y-35450D01*
X-28344Y-35534D01*
X-28302Y-35619D01*
X-28217Y-35661D01*
X-28006Y-35704D01*
X-27921Y-35746D01*
X-27879Y-35831D01*
Y-35873D01*
X-27921Y-35958D01*
X-28048Y-36000D01*
X-28175D01*
X-28302Y-35958D01*
X-28344Y-35873D01*
X-27608Y-35111D02*
X-27566Y-35154D01*
X-27523Y-35111D01*
X-27566Y-35069D01*
X-27608Y-35111D01*
X-27566Y-35407D02*
Y-36000D01*
X-26859Y-35407D02*
Y-36085D01*
X-26901Y-36212D01*
X-26943Y-36254D01*
X-27028Y-36296D01*
X-27155D01*
X-27240Y-36254D01*
X-26859Y-35534D02*
X-26943Y-35450D01*
X-27028Y-35407D01*
X-27155D01*
X-27240Y-35450D01*
X-27324Y-35534D01*
X-27367Y-35661D01*
Y-35746D01*
X-27324Y-35873D01*
X-27240Y-35958D01*
X-27155Y-36000D01*
X-27028D01*
X-26943Y-35958D01*
X-26859Y-35873D01*
X-26622Y-35407D02*
Y-36000D01*
Y-35577D02*
X-26495Y-35450D01*
X-26410Y-35407D01*
X-26283D01*
X-26198Y-35450D01*
X-26156Y-35577D01*
Y-36000D01*
X-25923Y-35661D02*
X-25415D01*
Y-35577D01*
X-25458Y-35492D01*
X-25500Y-35450D01*
X-25585Y-35407D01*
X-25712D01*
X-25796Y-35450D01*
X-25881Y-35534D01*
X-25923Y-35661D01*
Y-35746D01*
X-25881Y-35873D01*
X-25796Y-35958D01*
X-25712Y-36000D01*
X-25585D01*
X-25500Y-35958D01*
X-25415Y-35873D01*
X-25225Y-35407D02*
Y-36000D01*
Y-35661D02*
X-25183Y-35534D01*
X-25098Y-35450D01*
X-25013Y-35407D01*
X-24886D01*
X-24764D02*
X-24806Y-35450D01*
X-24764Y-35492D01*
X-24721Y-35450D01*
X-24764Y-35407D01*
Y-35915D02*
X-24806Y-35958D01*
X-24764Y-36000D01*
X-24721Y-35958D01*
X-24764Y-35915D01*
X-33000Y-39611D02*
Y-40500D01*
Y-39611D02*
X-32450D01*
X-33000Y-40034D02*
X-32661D01*
X-32264Y-39611D02*
X-32221Y-39654D01*
X-32179Y-39611D01*
X-32221Y-39569D01*
X-32264Y-39611D01*
X-32221Y-39907D02*
Y-40500D01*
X-32022Y-39611D02*
Y-40500D01*
X-31836Y-40161D02*
X-31328D01*
Y-40077D01*
X-31371Y-39992D01*
X-31413Y-39950D01*
X-31497Y-39907D01*
X-31624D01*
X-31709Y-39950D01*
X-31794Y-40034D01*
X-31836Y-40161D01*
Y-40246D01*
X-31794Y-40373D01*
X-31709Y-40458D01*
X-31624Y-40500D01*
X-31497D01*
X-31413Y-40458D01*
X-31328Y-40373D01*
X-30439Y-39611D02*
Y-40500D01*
Y-39611D02*
X-29847Y-40500D01*
Y-39611D02*
Y-40500D01*
X-29093Y-39907D02*
Y-40500D01*
Y-40034D02*
X-29178Y-39950D01*
X-29263Y-39907D01*
X-29390D01*
X-29474Y-39950D01*
X-29559Y-40034D01*
X-29601Y-40161D01*
Y-40246D01*
X-29559Y-40373D01*
X-29474Y-40458D01*
X-29390Y-40500D01*
X-29263D01*
X-29178Y-40458D01*
X-29093Y-40373D01*
X-28856Y-39907D02*
Y-40500D01*
Y-40077D02*
X-28729Y-39950D01*
X-28645Y-39907D01*
X-28518D01*
X-28433Y-39950D01*
X-28391Y-40077D01*
Y-40500D01*
Y-40077D02*
X-28264Y-39950D01*
X-28179Y-39907D01*
X-28052D01*
X-27968Y-39950D01*
X-27925Y-40077D01*
Y-40500D01*
X-27646Y-40161D02*
X-27138D01*
Y-40077D01*
X-27180Y-39992D01*
X-27223Y-39950D01*
X-27307Y-39907D01*
X-27434D01*
X-27519Y-39950D01*
X-27604Y-40034D01*
X-27646Y-40161D01*
Y-40246D01*
X-27604Y-40373D01*
X-27519Y-40458D01*
X-27434Y-40500D01*
X-27307D01*
X-27223Y-40458D01*
X-27138Y-40373D01*
X-26905Y-39907D02*
X-26948Y-39950D01*
X-26905Y-39992D01*
X-26863Y-39950D01*
X-26905Y-39907D01*
Y-40415D02*
X-26948Y-40458D01*
X-26905Y-40500D01*
X-26863Y-40458D01*
X-26905Y-40415D01*
X-23454Y-32361D02*
Y-33250D01*
X-23750Y-32361D02*
X-23157D01*
X-23052Y-32911D02*
X-22544D01*
Y-32827D01*
X-22586Y-32742D01*
X-22628Y-32700D01*
X-22713Y-32657D01*
X-22840D01*
X-22925Y-32700D01*
X-23009Y-32784D01*
X-23052Y-32911D01*
Y-32996D01*
X-23009Y-33123D01*
X-22925Y-33208D01*
X-22840Y-33250D01*
X-22713D01*
X-22628Y-33208D01*
X-22544Y-33123D01*
X-21845Y-32784D02*
X-21930Y-32700D01*
X-22015Y-32657D01*
X-22142D01*
X-22226Y-32700D01*
X-22311Y-32784D01*
X-22353Y-32911D01*
Y-32996D01*
X-22311Y-33123D01*
X-22226Y-33208D01*
X-22142Y-33250D01*
X-22015D01*
X-21930Y-33208D01*
X-21845Y-33123D01*
X-21655Y-32361D02*
Y-33250D01*
Y-32827D02*
X-21528Y-32700D01*
X-21443Y-32657D01*
X-21316D01*
X-21232Y-32700D01*
X-21189Y-32827D01*
Y-33250D01*
X-20957Y-32657D02*
Y-33250D01*
Y-32827D02*
X-20830Y-32700D01*
X-20745Y-32657D01*
X-20618D01*
X-20533Y-32700D01*
X-20491Y-32827D01*
Y-33250D01*
X-20047Y-32657D02*
X-20131Y-32700D01*
X-20216Y-32784D01*
X-20258Y-32911D01*
Y-32996D01*
X-20216Y-33123D01*
X-20131Y-33208D01*
X-20047Y-33250D01*
X-19920D01*
X-19835Y-33208D01*
X-19750Y-33123D01*
X-19708Y-32996D01*
Y-32911D01*
X-19750Y-32784D01*
X-19835Y-32700D01*
X-19920Y-32657D01*
X-20047D01*
X-19513Y-32361D02*
Y-33250D01*
X-19115Y-32657D02*
X-19200Y-32700D01*
X-19285Y-32784D01*
X-19327Y-32911D01*
Y-32996D01*
X-19285Y-33123D01*
X-19200Y-33208D01*
X-19115Y-33250D01*
X-18989D01*
X-18904Y-33208D01*
X-18819Y-33123D01*
X-18777Y-32996D01*
Y-32911D01*
X-18819Y-32784D01*
X-18904Y-32700D01*
X-18989Y-32657D01*
X-19115D01*
X-18074D02*
Y-33335D01*
X-18117Y-33462D01*
X-18159Y-33504D01*
X-18244Y-33546D01*
X-18371D01*
X-18455Y-33504D01*
X-18074Y-32784D02*
X-18159Y-32700D01*
X-18244Y-32657D01*
X-18371D01*
X-18455Y-32700D01*
X-18540Y-32784D01*
X-18582Y-32911D01*
Y-32996D01*
X-18540Y-33123D01*
X-18455Y-33208D01*
X-18371Y-33250D01*
X-18244D01*
X-18159Y-33208D01*
X-18074Y-33123D01*
X-17753Y-32361D02*
X-17710Y-32404D01*
X-17668Y-32361D01*
X-17710Y-32319D01*
X-17753Y-32361D01*
X-17710Y-32657D02*
Y-33250D01*
X-17511Y-32911D02*
X-17004D01*
Y-32827D01*
X-17046Y-32742D01*
X-17088Y-32700D01*
X-17173Y-32657D01*
X-17300D01*
X-17384Y-32700D01*
X-17469Y-32784D01*
X-17511Y-32911D01*
Y-32996D01*
X-17469Y-33123D01*
X-17384Y-33208D01*
X-17300Y-33250D01*
X-17173D01*
X-17088Y-33208D01*
X-17004Y-33123D01*
X-16347Y-32784D02*
X-16390Y-32700D01*
X-16517Y-32657D01*
X-16644D01*
X-16771Y-32700D01*
X-16813Y-32784D01*
X-16771Y-32869D01*
X-16686Y-32911D01*
X-16474Y-32954D01*
X-16390Y-32996D01*
X-16347Y-33081D01*
Y-33123D01*
X-16390Y-33208D01*
X-16517Y-33250D01*
X-16644D01*
X-16771Y-33208D01*
X-16813Y-33123D01*
X-33000Y-37111D02*
Y-38000D01*
Y-37111D02*
X-32661Y-38000D01*
X-32323Y-37111D02*
X-32661Y-38000D01*
X-32323Y-37111D02*
Y-38000D01*
X-31773Y-37111D02*
Y-38000D01*
X-32069Y-37111D02*
X-31476D01*
X-31371D02*
Y-38000D01*
X-30778Y-37111D02*
Y-38000D01*
X-31371Y-37534D02*
X-30778D01*
X-48365Y-32823D02*
X-48407Y-32738D01*
X-48492Y-32654D01*
X-48577Y-32611D01*
X-48746D01*
X-48831Y-32654D01*
X-48915Y-32738D01*
X-48958Y-32823D01*
X-49000Y-32950D01*
Y-33161D01*
X-48958Y-33288D01*
X-48915Y-33373D01*
X-48831Y-33458D01*
X-48746Y-33500D01*
X-48577D01*
X-48492Y-33458D01*
X-48407Y-33373D01*
X-48365Y-33288D01*
X-47523Y-32738D02*
X-47608Y-32654D01*
X-47735Y-32611D01*
X-47904D01*
X-48031Y-32654D01*
X-48115Y-32738D01*
Y-32823D01*
X-48073Y-32907D01*
X-48031Y-32950D01*
X-47946Y-32992D01*
X-47692Y-33077D01*
X-47608Y-33119D01*
X-47565Y-33161D01*
X-47523Y-33246D01*
Y-33373D01*
X-47608Y-33458D01*
X-47735Y-33500D01*
X-47904D01*
X-48031Y-33458D01*
X-48115Y-33373D01*
X-47324Y-32611D02*
Y-33500D01*
X-47095Y-32823D02*
Y-32780D01*
X-47053Y-32696D01*
X-47011Y-32654D01*
X-46926Y-32611D01*
X-46757D01*
X-46672Y-32654D01*
X-46630Y-32696D01*
X-46588Y-32780D01*
Y-32865D01*
X-46630Y-32950D01*
X-46714Y-33077D01*
X-47138Y-33500D01*
X-46545D01*
X-46346Y-33119D02*
X-45584D01*
X-45068Y-32611D02*
X-45153Y-32654D01*
X-45237Y-32738D01*
X-45280Y-32823D01*
X-45322Y-32950D01*
Y-33161D01*
X-45280Y-33288D01*
X-45237Y-33373D01*
X-45153Y-33458D01*
X-45068Y-33500D01*
X-44899D01*
X-44814Y-33458D01*
X-44729Y-33373D01*
X-44687Y-33288D01*
X-44645Y-33161D01*
Y-32950D01*
X-44687Y-32823D01*
X-44729Y-32738D01*
X-44814Y-32654D01*
X-44899Y-32611D01*
X-45068D01*
X-44437D02*
Y-33500D01*
Y-32611D02*
X-44057D01*
X-43930Y-32654D01*
X-43887Y-32696D01*
X-43845Y-32780D01*
Y-32865D01*
X-43887Y-32950D01*
X-43930Y-32992D01*
X-44057Y-33034D01*
X-44437D01*
X-44141D02*
X-43845Y-33500D01*
X-43646Y-32611D02*
Y-33500D01*
X-43460Y-32611D02*
Y-33500D01*
Y-32611D02*
X-42867Y-33500D01*
Y-32611D02*
Y-33500D01*
X-42622Y-33119D02*
X-41860D01*
X-41597Y-32611D02*
Y-33500D01*
Y-32611D02*
X-41005Y-33500D01*
Y-32611D02*
Y-33500D01*
X-40082D02*
X-40421Y-32611D01*
X-40759Y-33500D01*
X-40632Y-33204D02*
X-40209D01*
X-39875Y-32611D02*
Y-33500D01*
Y-32611D02*
X-39282Y-33500D01*
Y-32611D02*
Y-33500D01*
X-38783Y-32611D02*
X-38868Y-32654D01*
X-38952Y-32738D01*
X-38995Y-32823D01*
X-39037Y-32950D01*
Y-33161D01*
X-38995Y-33288D01*
X-38952Y-33373D01*
X-38868Y-33458D01*
X-38783Y-33500D01*
X-38614D01*
X-38529Y-33458D01*
X-38444Y-33373D01*
X-38402Y-33288D01*
X-38360Y-33161D01*
Y-32950D01*
X-38402Y-32823D01*
X-38444Y-32738D01*
X-38529Y-32654D01*
X-38614Y-32611D01*
X-38783D01*
X-38152Y-33796D02*
X-37475D01*
X-37361Y-32611D02*
Y-33500D01*
Y-32611D02*
X-36980D01*
X-36853Y-32654D01*
X-36811Y-32696D01*
X-36768Y-32780D01*
Y-32865D01*
X-36811Y-32950D01*
X-36853Y-32992D01*
X-36980Y-33034D01*
X-37361D01*
X-37065D02*
X-36768Y-33500D01*
X-36569Y-33161D02*
X-36061D01*
Y-33077D01*
X-36104Y-32992D01*
X-36146Y-32950D01*
X-36231Y-32907D01*
X-36358D01*
X-36442Y-32950D01*
X-36527Y-33034D01*
X-36569Y-33161D01*
Y-33246D01*
X-36527Y-33373D01*
X-36442Y-33458D01*
X-36358Y-33500D01*
X-36231D01*
X-36146Y-33458D01*
X-36061Y-33373D01*
X-35871Y-32907D02*
X-35617Y-33500D01*
X-35363Y-32907D02*
X-35617Y-33500D01*
X-34965Y-32611D02*
X-35092Y-32654D01*
X-35177Y-32780D01*
X-35219Y-32992D01*
Y-33119D01*
X-35177Y-33331D01*
X-35092Y-33458D01*
X-34965Y-33500D01*
X-34881D01*
X-34754Y-33458D01*
X-34669Y-33331D01*
X-34627Y-33119D01*
Y-32992D01*
X-34669Y-32780D01*
X-34754Y-32654D01*
X-34881Y-32611D01*
X-34965D01*
X-34428Y-32780D02*
X-34343Y-32738D01*
X-34216Y-32611D01*
Y-33500D01*
X6254Y-32611D02*
X6127Y-32654D01*
X6042Y-32780D01*
X6000Y-32992D01*
Y-33119D01*
X6042Y-33331D01*
X6127Y-33458D01*
X6254Y-33500D01*
X6339D01*
X6466Y-33458D01*
X6550Y-33331D01*
X6593Y-33119D01*
Y-32992D01*
X6550Y-32780D01*
X6466Y-32654D01*
X6339Y-32611D01*
X6254D01*
X6791Y-32780D02*
X6876Y-32738D01*
X7003Y-32611D01*
Y-33500D01*
X6000Y-35111D02*
Y-36000D01*
Y-35111D02*
X6381D01*
X6508Y-35154D01*
X6550Y-35196D01*
X6593Y-35280D01*
Y-35365D01*
X6550Y-35450D01*
X6508Y-35492D01*
X6381Y-35534D01*
X6000D02*
X6381D01*
X6508Y-35577D01*
X6550Y-35619D01*
X6593Y-35704D01*
Y-35831D01*
X6550Y-35915D01*
X6508Y-35958D01*
X6381Y-36000D01*
X6000D01*
X7299Y-35407D02*
Y-36000D01*
Y-35534D02*
X7215Y-35450D01*
X7130Y-35407D01*
X7003D01*
X6918Y-35450D01*
X6834Y-35534D01*
X6791Y-35661D01*
Y-35746D01*
X6834Y-35873D01*
X6918Y-35958D01*
X7003Y-36000D01*
X7130D01*
X7215Y-35958D01*
X7299Y-35873D01*
X7536Y-35407D02*
Y-36000D01*
Y-35661D02*
X7579Y-35534D01*
X7663Y-35450D01*
X7748Y-35407D01*
X7875D01*
X7955Y-35661D02*
X8463D01*
Y-35577D01*
X8421Y-35492D01*
X8379Y-35450D01*
X8294Y-35407D01*
X8167D01*
X8082Y-35450D01*
X7998Y-35534D01*
X7955Y-35661D01*
Y-35746D01*
X7998Y-35873D01*
X8082Y-35958D01*
X8167Y-36000D01*
X8294D01*
X8379Y-35958D01*
X8463Y-35873D01*
X9352Y-35111D02*
Y-36000D01*
Y-35111D02*
X9733D01*
X9860Y-35154D01*
X9902Y-35196D01*
X9945Y-35280D01*
Y-35365D01*
X9902Y-35450D01*
X9860Y-35492D01*
X9733Y-35534D01*
X9352D02*
X9733D01*
X9860Y-35577D01*
X9902Y-35619D01*
X9945Y-35704D01*
Y-35831D01*
X9902Y-35915D01*
X9860Y-35958D01*
X9733Y-36000D01*
X9352D01*
X10355Y-35407D02*
X10271Y-35450D01*
X10186Y-35534D01*
X10144Y-35661D01*
Y-35746D01*
X10186Y-35873D01*
X10271Y-35958D01*
X10355Y-36000D01*
X10482D01*
X10567Y-35958D01*
X10651Y-35873D01*
X10694Y-35746D01*
Y-35661D01*
X10651Y-35534D01*
X10567Y-35450D01*
X10482Y-35407D01*
X10355D01*
X11396D02*
Y-36000D01*
Y-35534D02*
X11312Y-35450D01*
X11227Y-35407D01*
X11100D01*
X11015Y-35450D01*
X10931Y-35534D01*
X10888Y-35661D01*
Y-35746D01*
X10931Y-35873D01*
X11015Y-35958D01*
X11100Y-36000D01*
X11227D01*
X11312Y-35958D01*
X11396Y-35873D01*
X11633Y-35407D02*
Y-36000D01*
Y-35661D02*
X11676Y-35534D01*
X11760Y-35450D01*
X11845Y-35407D01*
X11972D01*
X12560Y-35111D02*
Y-36000D01*
Y-35534D02*
X12476Y-35450D01*
X12391Y-35407D01*
X12264D01*
X12179Y-35450D01*
X12095Y-35534D01*
X12052Y-35661D01*
Y-35746D01*
X12095Y-35873D01*
X12179Y-35958D01*
X12264Y-36000D01*
X12391D01*
X12476Y-35958D01*
X12560Y-35873D01*
X13496Y-35111D02*
Y-36000D01*
Y-35111D02*
X14088Y-36000D01*
Y-35111D02*
Y-36000D01*
X14334Y-35407D02*
Y-35831D01*
X14376Y-35958D01*
X14461Y-36000D01*
X14588D01*
X14672Y-35958D01*
X14799Y-35831D01*
Y-35407D02*
Y-36000D01*
X15032Y-35407D02*
Y-36000D01*
Y-35577D02*
X15159Y-35450D01*
X15244Y-35407D01*
X15371D01*
X15455Y-35450D01*
X15498Y-35577D01*
Y-36000D01*
Y-35577D02*
X15625Y-35450D01*
X15709Y-35407D01*
X15836D01*
X15921Y-35450D01*
X15963Y-35577D01*
Y-36000D01*
X16242Y-35111D02*
Y-36000D01*
Y-35534D02*
X16327Y-35450D01*
X16412Y-35407D01*
X16539D01*
X16623Y-35450D01*
X16708Y-35534D01*
X16750Y-35661D01*
Y-35746D01*
X16708Y-35873D01*
X16623Y-35958D01*
X16539Y-36000D01*
X16412D01*
X16327Y-35958D01*
X16242Y-35873D01*
X16941Y-35661D02*
X17449D01*
Y-35577D01*
X17406Y-35492D01*
X17364Y-35450D01*
X17279Y-35407D01*
X17152D01*
X17068Y-35450D01*
X16983Y-35534D01*
X16941Y-35661D01*
Y-35746D01*
X16983Y-35873D01*
X17068Y-35958D01*
X17152Y-36000D01*
X17279D01*
X17364Y-35958D01*
X17449Y-35873D01*
X17639Y-35407D02*
Y-36000D01*
Y-35661D02*
X17681Y-35534D01*
X17766Y-35450D01*
X17851Y-35407D01*
X17978D01*
X18101D02*
X18058Y-35450D01*
X18101Y-35492D01*
X18143Y-35450D01*
X18101Y-35407D01*
Y-35915D02*
X18058Y-35958D01*
X18101Y-36000D01*
X18143Y-35958D01*
X18101Y-35915D01*
X6000Y-30611D02*
Y-31500D01*
Y-30611D02*
X6381D01*
X6508Y-30654D01*
X6550Y-30696D01*
X6593Y-30780D01*
Y-30865D01*
X6550Y-30950D01*
X6508Y-30992D01*
X6381Y-31034D01*
X6000D02*
X6381D01*
X6508Y-31077D01*
X6550Y-31119D01*
X6593Y-31204D01*
Y-31331D01*
X6550Y-31415D01*
X6508Y-31458D01*
X6381Y-31500D01*
X6000D01*
X7299Y-30907D02*
Y-31500D01*
Y-31034D02*
X7215Y-30950D01*
X7130Y-30907D01*
X7003D01*
X6918Y-30950D01*
X6834Y-31034D01*
X6791Y-31161D01*
Y-31246D01*
X6834Y-31373D01*
X6918Y-31458D01*
X7003Y-31500D01*
X7130D01*
X7215Y-31458D01*
X7299Y-31373D01*
X7536Y-30907D02*
Y-31500D01*
Y-31161D02*
X7579Y-31034D01*
X7663Y-30950D01*
X7748Y-30907D01*
X7875D01*
X7955Y-31161D02*
X8463D01*
Y-31077D01*
X8421Y-30992D01*
X8379Y-30950D01*
X8294Y-30907D01*
X8167D01*
X8082Y-30950D01*
X7998Y-31034D01*
X7955Y-31161D01*
Y-31246D01*
X7998Y-31373D01*
X8082Y-31458D01*
X8167Y-31500D01*
X8294D01*
X8379Y-31458D01*
X8463Y-31373D01*
X9352Y-30611D02*
Y-31500D01*
Y-30611D02*
X9733D01*
X9860Y-30654D01*
X9902Y-30696D01*
X9945Y-30780D01*
Y-30865D01*
X9902Y-30950D01*
X9860Y-30992D01*
X9733Y-31034D01*
X9352D02*
X9733D01*
X9860Y-31077D01*
X9902Y-31119D01*
X9945Y-31204D01*
Y-31331D01*
X9902Y-31415D01*
X9860Y-31458D01*
X9733Y-31500D01*
X9352D01*
X10355Y-30907D02*
X10271Y-30950D01*
X10186Y-31034D01*
X10144Y-31161D01*
Y-31246D01*
X10186Y-31373D01*
X10271Y-31458D01*
X10355Y-31500D01*
X10482D01*
X10567Y-31458D01*
X10651Y-31373D01*
X10694Y-31246D01*
Y-31161D01*
X10651Y-31034D01*
X10567Y-30950D01*
X10482Y-30907D01*
X10355D01*
X11396D02*
Y-31500D01*
Y-31034D02*
X11312Y-30950D01*
X11227Y-30907D01*
X11100D01*
X11015Y-30950D01*
X10931Y-31034D01*
X10888Y-31161D01*
Y-31246D01*
X10931Y-31373D01*
X11015Y-31458D01*
X11100Y-31500D01*
X11227D01*
X11312Y-31458D01*
X11396Y-31373D01*
X11633Y-30907D02*
Y-31500D01*
Y-31161D02*
X11676Y-31034D01*
X11760Y-30950D01*
X11845Y-30907D01*
X11972D01*
X12560Y-30611D02*
Y-31500D01*
Y-31034D02*
X12476Y-30950D01*
X12391Y-30907D01*
X12264D01*
X12179Y-30950D01*
X12095Y-31034D01*
X12052Y-31161D01*
Y-31246D01*
X12095Y-31373D01*
X12179Y-31458D01*
X12264Y-31500D01*
X12391D01*
X12476Y-31458D01*
X12560Y-31373D01*
X13496Y-30611D02*
Y-31500D01*
Y-30611D02*
X13877D01*
X14004Y-30654D01*
X14046Y-30696D01*
X14088Y-30780D01*
Y-30865D01*
X14046Y-30950D01*
X14004Y-30992D01*
X13877Y-31034D01*
X13496D01*
X13792D02*
X14088Y-31500D01*
X14287Y-31161D02*
X14795D01*
Y-31077D01*
X14753Y-30992D01*
X14710Y-30950D01*
X14626Y-30907D01*
X14499D01*
X14414Y-30950D01*
X14329Y-31034D01*
X14287Y-31161D01*
Y-31246D01*
X14329Y-31373D01*
X14414Y-31458D01*
X14499Y-31500D01*
X14626D01*
X14710Y-31458D01*
X14795Y-31373D01*
X14985Y-30907D02*
X15239Y-31500D01*
X15493Y-30907D02*
X15239Y-31500D01*
X15722Y-30611D02*
X15764Y-30654D01*
X15807Y-30611D01*
X15764Y-30569D01*
X15722Y-30611D01*
X15764Y-30907D02*
Y-31500D01*
X16429Y-31034D02*
X16386Y-30950D01*
X16259Y-30907D01*
X16132D01*
X16005Y-30950D01*
X15963Y-31034D01*
X16005Y-31119D01*
X16090Y-31161D01*
X16302Y-31204D01*
X16386Y-31246D01*
X16429Y-31331D01*
Y-31373D01*
X16386Y-31458D01*
X16259Y-31500D01*
X16132D01*
X16005Y-31458D01*
X15963Y-31373D01*
X16700Y-30611D02*
X16742Y-30654D01*
X16784Y-30611D01*
X16742Y-30569D01*
X16700Y-30611D01*
X16742Y-30907D02*
Y-31500D01*
X17152Y-30907D02*
X17068Y-30950D01*
X16983Y-31034D01*
X16941Y-31161D01*
Y-31246D01*
X16983Y-31373D01*
X17068Y-31458D01*
X17152Y-31500D01*
X17279D01*
X17364Y-31458D01*
X17449Y-31373D01*
X17491Y-31246D01*
Y-31161D01*
X17449Y-31034D01*
X17364Y-30950D01*
X17279Y-30907D01*
X17152D01*
X17686D02*
Y-31500D01*
Y-31077D02*
X17813Y-30950D01*
X17897Y-30907D01*
X18024D01*
X18109Y-30950D01*
X18151Y-31077D01*
Y-31500D01*
X18426Y-30907D02*
X18384Y-30950D01*
X18426Y-30992D01*
X18469Y-30950D01*
X18426Y-30907D01*
Y-31415D02*
X18384Y-31458D01*
X18426Y-31500D01*
X18469Y-31458D01*
X18426Y-31415D01*
D12*
X-0Y0D02*
X0Y36000D01*
Y36000D02*
X24000Y36000D01*
X24000Y0D02*
X24000Y36000D01*
X0Y0D02*
X24000D01*
D13*
X-74417Y-44500D02*
X-74750D01*
X-74417Y-44167D01*
Y-44083D01*
X-74500Y-44000D01*
X-74667D01*
X-74750Y-44083D01*
X-54750D02*
X-54667Y-44000D01*
X-54500D01*
X-54417Y-44083D01*
Y-44167D01*
X-54500Y-44250D01*
X-54583D01*
X-54500D01*
X-54417Y-44333D01*
Y-44417D01*
X-54500Y-44500D01*
X-54667D01*
X-54750Y-44417D01*
X-34500Y-44500D02*
Y-44000D01*
X-34750Y-44250D01*
X-34417D01*
X-14417Y-44000D02*
X-14750D01*
Y-44250D01*
X-14583Y-44167D01*
X-14500D01*
X-14417Y-44250D01*
Y-44417D01*
X-14500Y-44500D01*
X-14667D01*
X-14750Y-44417D01*
X5583Y-44000D02*
X5417Y-44083D01*
X5250Y-44250D01*
Y-44417D01*
X5333Y-44500D01*
X5500D01*
X5583Y-44417D01*
Y-44333D01*
X5500Y-44250D01*
X5250D01*
X25250Y-44000D02*
X25583D01*
Y-44083D01*
X25250Y-44417D01*
Y-44500D01*
X-94750D02*
X-94583D01*
X-94667D01*
Y-44000D01*
X-94750Y-44083D01*
Y54500D02*
X-94583D01*
X-94667D01*
Y55000D01*
X-94750Y54917D01*
X25250Y55000D02*
X25583D01*
Y54917D01*
X25250Y54583D01*
Y54500D01*
X5583Y55000D02*
X5417Y54917D01*
X5250Y54750D01*
Y54583D01*
X5333Y54500D01*
X5500D01*
X5583Y54583D01*
Y54667D01*
X5500Y54750D01*
X5250D01*
X-14417Y55000D02*
X-14750D01*
Y54750D01*
X-14583Y54833D01*
X-14500D01*
X-14417Y54750D01*
Y54583D01*
X-14500Y54500D01*
X-14667D01*
X-14750Y54583D01*
X-34500Y54500D02*
Y55000D01*
X-34750Y54750D01*
X-34417D01*
X-54750Y54917D02*
X-54667Y55000D01*
X-54500D01*
X-54417Y54917D01*
Y54833D01*
X-54500Y54750D01*
X-54583D01*
X-54500D01*
X-54417Y54667D01*
Y54583D01*
X-54500Y54500D01*
X-54667D01*
X-54750Y54583D01*
X-74417Y54500D02*
X-74750D01*
X-74417Y54833D01*
Y54917D01*
X-74500Y55000D01*
X-74667D01*
X-74750Y54917D01*
X-104117Y44950D02*
Y45283D01*
X-103950Y45450D01*
X-103784Y45283D01*
Y44950D01*
Y45200D01*
X-104117D01*
Y25450D02*
Y24950D01*
X-103867D01*
X-103784Y25033D01*
Y25117D01*
X-103867Y25200D01*
X-104117D01*
X-103867D01*
X-103784Y25283D01*
Y25367D01*
X-103867Y25450D01*
X-104117D01*
X-103784Y5367D02*
X-103867Y5450D01*
X-104033D01*
X-104117Y5367D01*
Y5033D01*
X-104033Y4950D01*
X-103867D01*
X-103784Y5033D01*
X-104117Y-14550D02*
Y-15050D01*
X-103867D01*
X-103784Y-14967D01*
Y-14633D01*
X-103867Y-14550D01*
X-104117D01*
X-103784Y-34550D02*
X-104117D01*
Y-35050D01*
X-103784D01*
X-104117Y-34800D02*
X-103950D01*
X35216Y-34550D02*
X34883D01*
Y-35050D01*
X35216D01*
X34883Y-34800D02*
X35050D01*
X34883Y-14550D02*
Y-15050D01*
X35133D01*
X35216Y-14967D01*
Y-14633D01*
X35133Y-14550D01*
X34883D01*
X35216Y5367D02*
X35133Y5450D01*
X34967D01*
X34883Y5367D01*
Y5033D01*
X34967Y4950D01*
X35133D01*
X35216Y5033D01*
X34883Y25450D02*
Y24950D01*
X35133D01*
X35216Y25033D01*
Y25117D01*
X35133Y25200D01*
X34883D01*
X35133D01*
X35216Y25283D01*
Y25367D01*
X35133Y25450D01*
X34883D01*
Y44950D02*
Y45283D01*
X35050Y45450D01*
X35216Y45283D01*
Y44950D01*
Y45200D01*
X34883D01*
D70*
X20987Y22500D02*
G03*
X20987Y22500I-287J0D01*
G01*
D02*
G03*
X20987Y22500I-287J0D01*
G01*
X20538Y22050D02*
G03*
X20538Y22050I-287J0D01*
G01*
D02*
G03*
X20538Y22050I-287J0D01*
G01*
X17087Y27100D02*
G03*
X17087Y27100I-287J0D01*
G01*
D02*
G03*
X17087Y27100I-287J0D01*
G01*
X13038Y26350D02*
G03*
X13038Y26350I-287J0D01*
G01*
D02*
G03*
X13038Y26350I-287J0D01*
G01*
X18788Y21250D02*
G03*
X18788Y21250I-287J0D01*
G01*
D02*
G03*
X18788Y21250I-287J0D01*
G01*
X14988Y21075D02*
G03*
X14988Y21075I-287J0D01*
G01*
X12837D02*
G03*
X12837Y21075I-287J0D01*
G01*
X14988D02*
G03*
X14988Y21075I-287J0D01*
G01*
X12837D02*
G03*
X12837Y21075I-287J0D01*
G01*
X10938Y22850D02*
G03*
X10938Y22850I-287J0D01*
G01*
D02*
G03*
X10938Y22850I-287J0D01*
G01*
Y22225D02*
G03*
X10938Y22225I-287J0D01*
G01*
D02*
G03*
X10938Y22225I-287J0D01*
G01*
X18087Y21000D02*
G03*
X18087Y21000I-287J0D01*
G01*
D02*
G03*
X18087Y21000I-287J0D01*
G01*
X17638Y16825D02*
G03*
X17638Y16825I-287J0D01*
G01*
X17237Y19286D02*
G03*
X17237Y19286I-287J0D01*
G01*
Y19911D02*
G03*
X17237Y19911I-287J0D01*
G01*
X14988Y20450D02*
G03*
X14988Y20450I-287J0D01*
G01*
D02*
G03*
X14988Y20450I-287J0D01*
G01*
X17237Y19911D02*
G03*
X17237Y19911I-287J0D01*
G01*
Y19286D02*
G03*
X17237Y19286I-287J0D01*
G01*
X17638Y15325D02*
G03*
X17638Y15325I-287J0D01*
G01*
D02*
G03*
X17638Y15325I-287J0D01*
G01*
Y14700D02*
G03*
X17638Y14700I-287J0D01*
G01*
Y16200D02*
G03*
X17638Y16200I-287J0D01*
G01*
Y16825D02*
G03*
X17638Y16825I-287J0D01*
G01*
Y16200D02*
G03*
X17638Y16200I-287J0D01*
G01*
Y13175D02*
G03*
X17638Y13175I-287J0D01*
G01*
Y13800D02*
G03*
X17638Y13800I-287J0D01*
G01*
Y13175D02*
G03*
X17638Y13175I-287J0D01*
G01*
Y14700D02*
G03*
X17638Y14700I-287J0D01*
G01*
Y13800D02*
G03*
X17638Y13800I-287J0D01*
G01*
X12837Y20450D02*
G03*
X12837Y20450I-287J0D01*
G01*
D02*
G03*
X12837Y20450I-287J0D01*
G01*
X13688Y18075D02*
G03*
X13688Y18075I-287J0D01*
G01*
D02*
G03*
X13688Y18075I-287J0D01*
G01*
Y18700D02*
G03*
X13688Y18700I-287J0D01*
G01*
D02*
G03*
X13688Y18700I-287J0D01*
G01*
X10988Y13150D02*
G03*
X10988Y13150I-688J0D01*
G01*
X13538D02*
G03*
X13538Y13150I-688J0D01*
G01*
X9738Y12050D02*
G03*
X9738Y12050I-287J0D01*
G01*
D02*
G03*
X9738Y12050I-287J0D01*
G01*
X21288Y7900D02*
G03*
X21288Y7900I-688J0D01*
G01*
Y2820D02*
G03*
X21288Y2820I-688J0D01*
G01*
Y5360D02*
G03*
X21288Y5360I-688J0D01*
G01*
X16407Y6375D02*
G03*
X16407Y6375I-688J0D01*
G01*
X13868Y6400D02*
G03*
X13868Y6400I-688J0D01*
G01*
X11328D02*
G03*
X11328Y6400I-688J0D01*
G01*
X20100Y2025D02*
G03*
X19900Y1811I-0J-200D01*
G01*
X16407Y3775D02*
G03*
X16407Y3775I-688J0D01*
G01*
X13868Y3800D02*
G03*
X13868Y3800I-688J0D01*
G01*
X11328D02*
G03*
X11328Y3800I-688J0D01*
G01*
X9238Y26850D02*
G03*
X8675Y26934I-287J0D01*
G01*
X9238Y26850D02*
G03*
X8675Y26934I-287J0D01*
G01*
X8675D02*
G03*
X8675Y26766I-275J-84D01*
G01*
Y26934D02*
G03*
X8675Y26766I-275J-84D01*
G01*
X8675D02*
G03*
X9238Y26850I275J84D01*
G01*
X8675Y26766D02*
G03*
X9238Y26850I275J84D01*
G01*
X8738Y22200D02*
G03*
X8738Y22200I-287J0D01*
G01*
D02*
G03*
X8738Y22200I-287J0D01*
G01*
Y22830D02*
G03*
X8738Y22830I-287J0D01*
G01*
D02*
G03*
X8738Y22830I-287J0D01*
G01*
X6940Y22812D02*
G03*
X6940Y22812I-287J0D01*
G01*
D02*
G03*
X6940Y22812I-287J0D01*
G01*
Y22188D02*
G03*
X6940Y22188I-287J0D01*
G01*
D02*
G03*
X6940Y22188I-287J0D01*
G01*
X5000Y32939D02*
G03*
X5000Y31861I340J-539D01*
G01*
X3737Y32400D02*
G03*
X3737Y32400I-938J0D01*
G01*
X6188Y15750D02*
G03*
X6188Y15750I-287J0D01*
G01*
Y12750D02*
G03*
X6188Y12750I-287J0D01*
G01*
Y14250D02*
G03*
X6188Y14250I-287J0D01*
G01*
Y12750D02*
G03*
X6188Y12750I-287J0D01*
G01*
Y15750D02*
G03*
X6188Y15750I-287J0D01*
G01*
Y14250D02*
G03*
X6188Y14250I-287J0D01*
G01*
X8837Y12050D02*
G03*
X8837Y12050I-287J0D01*
G01*
D02*
G03*
X8837Y12050I-287J0D01*
G01*
X8788Y6400D02*
G03*
X8788Y6400I-688J0D01*
G01*
Y3800D02*
G03*
X8788Y3800I-688J0D01*
G01*
X5387Y10550D02*
G03*
X5387Y10550I-287J0D01*
G01*
D02*
G03*
X5387Y10550I-287J0D01*
G01*
X3797Y11469D02*
G03*
X3797Y11469I-287J0D01*
G01*
D02*
G03*
X3797Y11469I-287J0D01*
G01*
X4988Y3500D02*
G03*
X4988Y3500I-1487J0D01*
G01*
X17737Y34525D02*
G03*
X16212Y34525I-762J0D01*
G01*
Y33875D02*
G03*
X17737Y33875I762J0D01*
G01*
X17737Y30675D02*
G03*
X16400Y31482I-913J0D01*
G01*
X15917Y30765D02*
G03*
X15913Y30675I908J-90D01*
G01*
X16400Y31500D02*
G03*
X15917Y30765I-800J0D01*
G01*
X17490Y29500D02*
G03*
X17737Y30125I-665J625D01*
G01*
X15913D02*
G03*
X16160Y29500I913J0D01*
G01*
X11400Y31500D02*
G03*
X9800Y31482I-800J0D01*
G01*
X10283Y30765D02*
G03*
X11400Y31500I317J735D01*
G01*
X10288Y30675D02*
G03*
X10283Y30765I-913J0D01*
G01*
X8462Y33875D02*
G03*
X9988Y33875I762J0D01*
G01*
Y34525D02*
G03*
X8462Y34525I-762J0D01*
G01*
X9800Y31482D02*
G03*
X8462Y30675I-425J-807D01*
G01*
X5500Y31783D02*
G03*
X5977Y32400I-160J617D01*
G01*
D02*
G03*
X5500Y33017I-637J0D01*
G01*
X8462Y30125D02*
G03*
X10288Y30125I913J0D01*
G01*
X21077Y29000D02*
X23400Y26677D01*
X21254Y29000D02*
X23400Y26854D01*
X20900Y29000D02*
X23400Y26500D01*
X20547Y29000D02*
X23400Y26147D01*
X20723Y29000D02*
X23400Y26323D01*
X20370Y29000D02*
X23400Y25970D01*
X20016Y29000D02*
X23400Y25616D01*
X20193Y29000D02*
X23400Y25793D01*
X19839Y29000D02*
X23400Y25440D01*
X19486Y29000D02*
X23400Y25086D01*
X19663Y29000D02*
X23400Y25263D01*
X19309Y29000D02*
X23400Y24909D01*
X23022Y29000D02*
X23400Y28622D01*
X23198Y29000D02*
X23400Y28798D01*
X22845Y29000D02*
X23400Y28445D01*
X22491Y29000D02*
X23400Y28091D01*
X22668Y29000D02*
X23400Y28268D01*
X22314Y29000D02*
X23400Y27914D01*
X21961Y29000D02*
X23400Y27561D01*
X22138Y29000D02*
X23400Y27738D01*
X21784Y29000D02*
X23400Y27384D01*
X21607Y29000D02*
X23400Y27207D01*
X21431Y29000D02*
X23400Y27031D01*
X17011Y29000D02*
X23400Y22611D01*
X17188Y29000D02*
X23400Y22788D01*
X16834Y29000D02*
X23400Y22434D01*
X16481Y29000D02*
X23400Y22081D01*
X16657Y29000D02*
X23400Y22257D01*
X16304Y29000D02*
X23400Y21904D01*
X17081Y27163D02*
X23400Y20843D01*
X17671Y21257D02*
X23400Y26986D01*
X17069Y26998D02*
X23400Y20666D01*
X15950Y29000D02*
X23400Y21550D01*
X16127Y29000D02*
X23400Y21727D01*
X15774Y29000D02*
X23400Y21374D01*
X18956Y29000D02*
X23400Y24556D01*
X19132Y29000D02*
X23400Y24732D01*
X18779Y29000D02*
X23400Y24379D01*
X18425Y29000D02*
X23400Y24025D01*
X18602Y29000D02*
X23400Y24202D01*
X18248Y29000D02*
X23400Y23848D01*
X17895Y29000D02*
X23400Y23495D01*
X18072Y29000D02*
X23400Y23672D01*
X17718Y29000D02*
X23400Y23318D01*
X17541Y29000D02*
X23400Y23141D01*
X17365Y29000D02*
X23400Y22965D01*
X14986Y21047D02*
X22939Y29000D01*
X14960Y21198D02*
X22762Y29000D01*
X14924Y20631D02*
X23293Y29000D01*
X14883Y21297D02*
X22586Y29000D01*
X14764Y21355D02*
X22409Y29000D01*
X14825Y20709D02*
X23116Y29000D01*
X15420D02*
X23400Y21020D01*
X15597Y29000D02*
X23400Y21197D01*
X14981Y20511D02*
X23400Y28930D01*
X14943Y20297D02*
X23400Y28754D01*
X11250Y29000D02*
X23400D01*
X13655Y18832D02*
X23400Y28577D01*
X14359Y29000D02*
X20593Y22767D01*
X14183Y29000D02*
X20488Y22694D01*
X14006Y29000D02*
X20424Y22581D01*
X12748Y21284D02*
X20464Y29000D01*
X13829D02*
X20431Y22398D01*
X12819Y21177D02*
X20641Y29000D01*
X14556Y21324D02*
X22232Y29000D01*
X12831Y21013D02*
X20818Y29000D01*
X12835Y20487D02*
X21348Y29000D01*
X12694Y20699D02*
X20995Y29000D01*
X12786Y20614D02*
X21171Y29000D01*
X11531D02*
X23400Y17131D01*
X11708Y29000D02*
X23400Y17308D01*
X11354Y29000D02*
X23400Y16954D01*
X10233Y28000D02*
X23400Y14833D01*
X11214Y28964D02*
X23400Y16777D01*
X10056Y28000D02*
X23400Y14656D01*
X9702Y28000D02*
X23400Y14302D01*
X9879Y28000D02*
X23400Y14479D01*
X10011Y13774D02*
X23400Y27163D01*
X9526Y28000D02*
X23400Y14126D01*
X9349Y28000D02*
X23400Y13949D01*
X12592Y29000D02*
X23400Y18192D01*
X12768Y29000D02*
X23400Y18368D01*
X12415Y29000D02*
X23400Y18015D01*
X12061Y29000D02*
X23400Y17661D01*
X12238Y29000D02*
X23400Y17838D01*
X11884Y29000D02*
X23400Y17484D01*
X13678Y18148D02*
X23400Y27870D01*
X13687Y18687D02*
X23400Y28400D01*
X13661Y17954D02*
X23400Y27693D01*
X13515Y18338D02*
X23400Y28223D01*
X13617Y18264D02*
X23400Y28047D01*
X18726Y21428D02*
X23400Y26102D01*
X18628Y21507D02*
X23400Y26279D01*
X18782Y21307D02*
X23400Y25925D01*
X17870Y21279D02*
X23400Y26809D01*
X18481Y21537D02*
X23400Y26455D01*
X17987Y21219D02*
X23400Y26632D01*
X20982Y22554D02*
X23400Y20136D01*
X20983Y22447D02*
X23400Y24864D01*
X20967Y22393D02*
X23400Y19959D01*
X20894Y22288D02*
X23400Y19783D01*
X18733Y21081D02*
X23400Y25748D01*
X20781Y22224D02*
X23400Y19606D01*
X20894Y22712D02*
X23400Y25218D01*
X20781Y22776D02*
X23400Y25395D01*
X20967Y22608D02*
X23400Y25041D01*
X20597Y22768D02*
X23400Y25572D01*
X20517Y22158D02*
X20592Y22233D01*
X20147Y22318D02*
X20432Y22603D01*
X20533Y21997D02*
X20753Y22217D01*
X18086Y21031D02*
X23400Y15717D01*
X18508Y20963D02*
X23400Y16070D01*
X18061Y20879D02*
X23400Y15540D01*
X17984Y20779D02*
X23400Y15363D01*
X17631Y15384D02*
X23400Y21152D01*
X17661Y20748D02*
X23400Y15010D01*
X17866Y20720D02*
X23400Y15186D01*
X17637Y14682D02*
X23400Y20445D01*
X17638Y13799D02*
X23400Y19561D01*
X17626Y13257D02*
X23400Y19031D01*
X17630Y16890D02*
X23400Y11120D01*
X20528Y22125D02*
X23400Y19252D01*
X20598Y22231D02*
X23400Y19429D01*
X20521Y21954D02*
X23400Y19075D01*
X17637Y16803D02*
X23400Y22566D01*
X20453Y21846D02*
X23400Y18899D01*
X17630Y16266D02*
X23400Y22036D01*
X20172Y21773D02*
X23400Y18545D01*
X20344Y21778D02*
X23400Y18722D01*
X18785Y21215D02*
X23400Y16601D01*
X18737Y21087D02*
X23400Y16424D01*
X18645Y21002D02*
X23400Y16247D01*
X17477Y15583D02*
X23400Y21506D01*
X17329Y15612D02*
X23400Y21682D01*
X17575Y15504D02*
X23400Y21329D01*
X12713Y13824D02*
X23400Y24511D01*
X12901Y13836D02*
X23400Y24334D01*
X13050Y13808D02*
X23400Y24157D01*
X17607Y14829D02*
X23400Y20622D01*
X17587Y15163D02*
X23400Y20975D01*
X17601Y13939D02*
X23400Y19738D01*
X17393Y14084D02*
X23400Y20091D01*
X17528Y14926D02*
X23400Y20799D01*
X17518Y14033D02*
X23400Y19915D01*
X17410Y17106D02*
X23400Y23097D01*
X16998Y26892D02*
X23400Y20490D01*
X17191Y17065D02*
X23400Y23273D01*
X16887Y26826D02*
X23400Y20313D01*
X16709Y26827D02*
X20754Y22782D01*
X13026Y26268D02*
X23400Y15893D01*
X17571Y16384D02*
X23400Y22213D01*
X17608Y16951D02*
X23400Y22743D01*
X17602Y16061D02*
X23400Y21859D01*
X17530Y17050D02*
X23400Y22920D01*
X17471Y16461D02*
X23400Y22390D01*
X14986Y20419D02*
X23400Y12004D01*
X14895Y20863D02*
X23400Y12358D01*
X14938Y20289D02*
X23400Y11828D01*
X14848Y20203D02*
X23400Y11651D01*
X14782Y20799D02*
X23400Y12181D01*
X14711Y20163D02*
X23400Y11474D01*
X17233Y19232D02*
X23400Y13065D01*
X17164Y19478D02*
X23400Y13242D01*
X17178Y19110D02*
X23400Y12888D01*
X17081Y19030D02*
X23400Y12711D01*
X16936Y18999D02*
X23400Y12535D01*
X17236Y19936D02*
X23400Y13772D01*
X13445Y13495D02*
X23400Y23450D01*
X13445Y13495D02*
X23400Y23450D01*
X13281Y13685D02*
X23400Y23804D01*
X13175Y13756D02*
X23400Y23981D01*
X13371Y13598D02*
X23400Y23627D01*
X17562Y13369D02*
X23400Y19208D01*
X17457Y13442D02*
X23400Y19384D01*
X17619Y13073D02*
X23400Y18854D01*
X17209Y19786D02*
X23400Y13595D01*
X17131Y19687D02*
X23400Y13419D01*
X17002Y27305D02*
X18697Y29000D01*
X16892Y27372D02*
X18520Y29000D01*
X17071Y27197D02*
X18873Y29000D01*
X16719Y27376D02*
X18343Y29000D01*
X10937Y22831D02*
X17106Y29000D01*
X10929Y22293D02*
X17636Y29000D01*
X17078Y27028D02*
X19050Y29000D01*
X20331Y22326D02*
X20424Y22419D01*
X13652Y29000D02*
X20325Y22328D01*
X13475Y29000D02*
X20154Y22321D01*
X14536Y29000D02*
X16527Y27009D01*
X14713Y29000D02*
X16526Y27187D01*
X13037Y26346D02*
X15691Y29000D01*
X12920Y26582D02*
X15338Y29000D01*
X12795Y26634D02*
X15161Y29000D01*
X13002Y26488D02*
X15515Y29000D01*
X15243D02*
X16863Y27381D01*
X15066Y29000D02*
X16698Y27369D01*
X14890Y29000D02*
X16592Y27298D01*
X13299Y29000D02*
X20046Y22253D01*
X13122Y29000D02*
X19978Y22144D01*
X12945Y29000D02*
X19973Y21972D01*
X12637Y21349D02*
X20288Y29000D01*
X11125Y28875D02*
X18465Y21535D01*
X12458Y21347D02*
X20111Y29000D01*
X17231Y19226D02*
X19974Y21969D01*
X11037Y28787D02*
X18337Y21487D01*
X17218Y19390D02*
X19982Y22153D01*
X12961Y26155D02*
X17831Y21286D01*
X12857Y26083D02*
X17679Y21261D01*
X13019Y26451D02*
X18213Y21258D01*
X10948Y28698D02*
X18252Y21395D01*
X10936Y22877D02*
X12464Y21349D01*
X12695Y26068D02*
X17579Y21184D01*
X10933Y22173D02*
X12407Y20699D01*
X10828Y23076D02*
X16752Y29000D01*
X10707Y23132D02*
X16575Y29000D01*
X10907Y22978D02*
X16929Y29000D01*
X10481Y23083D02*
X16398Y29000D01*
X8724Y22917D02*
X14807Y29000D01*
X8722Y22738D02*
X14984Y29000D01*
X10860Y28610D02*
X12851Y26619D01*
X10772Y28522D02*
X12668Y26626D01*
X10870Y22411D02*
X17459Y29000D01*
X10769Y22487D02*
X17282Y29000D01*
X10683Y28433D02*
X12555Y26561D01*
X8737Y22222D02*
X12612Y26098D01*
X10595Y28345D02*
X12483Y26457D01*
X10250Y28000D02*
X11250Y29000D01*
X10507Y28257D02*
X12468Y26295D01*
X9220Y26948D02*
X11272Y29000D01*
X8867Y27125D02*
X9742Y28000D01*
X9229Y26780D02*
X11449Y29000D01*
X10504Y22603D02*
X10598Y22508D01*
X9041Y27123D02*
X9918Y28000D01*
X9151Y27056D02*
X10095Y28000D01*
X10905Y22092D02*
X17813Y29000D01*
X10418Y28168D02*
X17520Y21066D01*
X10330Y28080D02*
X17548Y20861D01*
X9172Y28000D02*
X16975Y20197D01*
X8995Y28000D02*
X16825Y20170D01*
X8819Y28000D02*
X16727Y20092D01*
X9236Y26875D02*
X14754Y21357D01*
X9209Y26725D02*
X14593Y21342D01*
X10638Y21938D02*
X17103Y15473D01*
X8733Y22252D02*
X17082Y13903D01*
X8716Y22092D02*
X17069Y13739D01*
X9131Y26627D02*
X14488Y21270D01*
X10910Y22727D02*
X12353Y21284D01*
X10832Y22628D02*
X12282Y21178D01*
X8799Y26605D02*
X14431Y20973D01*
X9012Y26569D02*
X14424Y21157D01*
X8733Y22782D02*
X13218Y18297D01*
X10879Y22051D02*
X12314Y20615D01*
X10713Y22570D02*
X12269Y21014D01*
X10783Y21970D02*
X12265Y20488D01*
X18085Y20964D02*
X18243Y21122D01*
X18062Y21118D02*
X18213Y21269D01*
X17236Y19938D02*
X18322Y21024D01*
X17147Y19495D02*
X18669Y21017D01*
X17190Y20069D02*
X17836Y20715D01*
X17100Y20156D02*
X17682Y20738D01*
X17035Y19560D02*
X18443Y20968D01*
X16966Y20198D02*
X17581Y20813D01*
X14982Y21129D02*
X16694Y19417D01*
X14967Y20968D02*
X16663Y19272D01*
X14598Y20806D02*
X14669Y20736D01*
X16855Y19557D02*
X16923Y19625D01*
X16799Y19666D02*
X16897Y19568D01*
X17012Y19630D02*
X17142Y19499D01*
X17262Y16551D02*
X17327Y16487D01*
X13687Y18712D02*
X17063Y15336D01*
X13680Y18012D02*
X17075Y14617D01*
X13655Y18567D02*
X17252Y14970D01*
X13648Y18221D02*
X17077Y14791D01*
X13622Y17893D02*
X17443Y14072D01*
X17407Y14982D02*
X17512Y15088D01*
X17361Y15038D02*
X17420Y14979D01*
X17296Y13457D02*
X17351Y13512D01*
X17179Y14931D02*
X17291Y15044D01*
X17289Y13519D02*
X17346Y13462D01*
X12822Y21168D02*
X17076Y16914D01*
X12824Y20989D02*
X17076Y16737D01*
X12759Y20878D02*
X17195Y16442D01*
X10250Y13836D02*
X17543Y21129D01*
X12653Y20807D02*
X17107Y16353D01*
X10418Y13827D02*
X17521Y20930D01*
X13523Y17815D02*
X17264Y14074D01*
X13574Y18471D02*
X17144Y14901D01*
X13373Y17789D02*
X17153Y14009D01*
X12715Y20214D02*
X17319Y15611D01*
X12837Y20445D02*
X17063Y16220D01*
X12588Y20165D02*
X17189Y15563D01*
X13452Y18983D02*
X14639Y20169D01*
X12555Y20737D02*
X12612Y20794D01*
X13575Y18928D02*
X14853Y20207D01*
X12489Y20794D02*
X12545Y20737D01*
X13452Y18417D02*
X13546Y18323D01*
X10967Y13316D02*
X16740Y19089D01*
X10921Y13446D02*
X16675Y19201D01*
X10987Y13159D02*
X16846Y19018D01*
X10772Y13650D02*
X16792Y19671D01*
X10672Y13728D02*
X16705Y19760D01*
X10854Y13556D02*
X16679Y19381D01*
X13500Y13374D02*
X17110Y16984D01*
X13533Y13230D02*
X17069Y16765D01*
X13530Y13050D02*
X17125Y16645D01*
X10959Y12954D02*
X17010Y19004D01*
X13415Y12758D02*
X17224Y16567D01*
X10556Y13788D02*
X16663Y19895D01*
X9459Y12337D02*
X9800Y12678D01*
X8794Y12203D02*
X9623Y13032D01*
X8837Y12069D02*
X9662Y12894D01*
X9687Y12212D02*
X10004Y12529D01*
X9596Y12298D02*
X9894Y12595D01*
X9736Y12084D02*
X10134Y12483D01*
X20557Y8586D02*
X23400Y11429D01*
X17620Y14602D02*
X23400Y8822D01*
X20323Y8529D02*
X23400Y11606D01*
X17441Y14427D02*
X23400Y8469D01*
X17551Y14494D02*
X23400Y8646D01*
X17267Y14425D02*
X23400Y8292D01*
X21157Y8303D02*
X23400Y10545D01*
X21075Y8397D02*
X23400Y10722D01*
X21223Y8191D02*
X23400Y10369D01*
X20861Y8536D02*
X23400Y11076D01*
X20724Y8576D02*
X23400Y11253D01*
X20976Y8475D02*
X23400Y10899D01*
X17637Y16177D02*
X23400Y10413D01*
X17619Y16724D02*
X23400Y10944D01*
X17592Y16045D02*
X23400Y10237D01*
X17439Y16551D02*
X23400Y10590D01*
X17549Y16618D02*
X23400Y10767D01*
X17503Y15957D02*
X23400Y10060D01*
X17588Y15164D02*
X23400Y9353D01*
X17636Y15294D02*
X23400Y9529D01*
X17629Y14770D02*
X23400Y8999D01*
X17370Y15913D02*
X23400Y9883D01*
X17498Y15078D02*
X23400Y9176D01*
X16407Y6381D02*
X23400Y13374D01*
X17388Y12890D02*
X23400Y6878D01*
X23400Y29000D02*
X23400Y2025D01*
X16388Y6538D02*
X23400Y13551D01*
X16342Y6669D02*
X23400Y13727D01*
X16378Y6175D02*
X23400Y13197D01*
X20813Y6014D02*
X23400Y8601D01*
X20667Y6044D02*
X23400Y8778D01*
X20936Y5960D02*
X23400Y8424D01*
X20483Y6037D02*
X23400Y8954D01*
X20138Y5869D02*
X23400Y9131D01*
X17624Y13714D02*
X23400Y7938D01*
X17622Y13893D02*
X23400Y8115D01*
X17637Y13171D02*
X23400Y7408D01*
X17453Y13532D02*
X23400Y7585D01*
X17559Y13603D02*
X23400Y7762D01*
X17599Y13032D02*
X23400Y7231D01*
X21288Y7903D02*
X23400Y10015D01*
X21269Y8060D02*
X23400Y10192D01*
X21256Y7694D02*
X23400Y9838D01*
X17515Y12940D02*
X23400Y7054D01*
X15436Y7001D02*
X23400Y14965D01*
X13862Y6487D02*
X23400Y16026D01*
X13862Y6310D02*
X23400Y15849D01*
X12799Y20307D02*
X23400Y9706D01*
X11327Y6427D02*
X23400Y18500D01*
X11306Y6230D02*
X23400Y18324D01*
X16193Y6874D02*
X23400Y14081D01*
X16094Y6952D02*
X23400Y14258D01*
X16276Y6780D02*
X23400Y13904D01*
X15841Y7052D02*
X23400Y14611D01*
X15673Y7061D02*
X23400Y14788D01*
X15978Y7012D02*
X23400Y14435D01*
X13499Y7009D02*
X23400Y16909D01*
X13373Y7060D02*
X23400Y17086D01*
X13607Y6939D02*
X23400Y16733D01*
X13031Y7071D02*
X23400Y17440D01*
X13223Y7086D02*
X23400Y17263D01*
X11303Y6581D02*
X23400Y18677D01*
X13771Y6751D02*
X23400Y16379D01*
X13697Y6853D02*
X23400Y16556D01*
X13828Y6630D02*
X23400Y16202D01*
X13528Y13037D02*
X20522Y6043D01*
X13535Y13207D02*
X20702Y6040D01*
X11333Y600D02*
X23400Y12667D01*
X15519Y4433D02*
X23400Y12313D01*
X11510Y600D02*
X23400Y12490D01*
X10980Y600D02*
X23400Y13020D01*
X8858Y600D02*
X23400Y15142D01*
X11156Y600D02*
X23400Y12844D01*
X16014Y4397D02*
X23400Y11783D01*
X15883Y4443D02*
X23400Y11960D01*
X14692Y600D02*
X23400Y9308D01*
X14339Y600D02*
X23400Y9661D01*
X14515Y600D02*
X23400Y9485D01*
X13762Y6034D02*
X23400Y15672D01*
X13490Y12899D02*
X20378Y6011D01*
X13468Y13451D02*
X20999Y5920D01*
X10986Y13104D02*
X20583Y3507D01*
X10959Y12955D02*
X20428Y3486D01*
X10972Y13295D02*
X20785Y3482D01*
X13430Y12781D02*
X20256Y5955D01*
X13353Y12682D02*
X20153Y5882D01*
X15726Y4462D02*
X23400Y12136D01*
X10908Y12829D02*
X20299Y3438D01*
X10838Y12722D02*
X20189Y3371D01*
X21280Y5462D02*
X23400Y3342D01*
X21160Y5759D02*
X23400Y3519D01*
X21176Y3195D02*
X23400Y5419D01*
X21004Y3376D02*
X23400Y5772D01*
X21091Y7419D02*
X23400Y5110D01*
X21098Y3294D02*
X23400Y5596D01*
X21277Y2942D02*
X23400Y5065D01*
X21283Y5282D02*
X23400Y3165D01*
X21286Y2774D02*
X23400Y4888D01*
X21251Y5138D02*
X23400Y2989D01*
X21237Y3079D02*
X23400Y5242D01*
X21195Y5016D02*
X23400Y2812D01*
X21287Y7930D02*
X23400Y5817D01*
X21238Y8156D02*
X23400Y5994D01*
X21274Y7766D02*
X23400Y5640D01*
X21129Y5799D02*
X23400Y8070D01*
X21041Y5888D02*
X23400Y8247D01*
X21201Y5694D02*
X23400Y7894D01*
X21284Y5425D02*
X23400Y7540D01*
X21254Y5571D02*
X23400Y7717D01*
X21277Y5240D02*
X23400Y7363D01*
X21233Y7631D02*
X23400Y5463D01*
X21170Y7516D02*
X23400Y5287D01*
X22128Y2025D02*
X23400Y3297D01*
X21951Y2025D02*
X23400Y3474D01*
X22304Y2025D02*
X23400Y3121D01*
X21597Y2025D02*
X23400Y3828D01*
X21420Y2025D02*
X23400Y4005D01*
X21774Y2025D02*
X23400Y3651D01*
X23011Y2025D02*
X23400Y2414D01*
X22835Y2025D02*
X23400Y2590D01*
X23188Y2025D02*
X23400Y2237D01*
X22481Y2025D02*
X23400Y2944D01*
X22658Y2025D02*
X23400Y2767D01*
X21244Y2025D02*
X23400Y4181D01*
X21228Y2539D02*
X23400Y4712D01*
X21262Y3005D02*
X22242Y2025D01*
X21033Y4826D02*
X23400Y2458D01*
X21122Y4913D02*
X23400Y2635D01*
X21067Y2025D02*
X23400Y4358D01*
X21266Y2648D02*
X21889Y2025D01*
X21218Y2519D02*
X21712Y2025D01*
X21287Y2803D02*
X22065Y2025D01*
X21068Y2316D02*
X21358Y2025D01*
X21151Y2409D02*
X21535Y2025D01*
X20883Y7273D02*
X23400Y4756D01*
X20996Y7338D02*
X23400Y4933D01*
X20750Y7229D02*
X23400Y4580D01*
X20376Y7250D02*
X23400Y4226D01*
X20590Y7213D02*
X23400Y4403D01*
X20398Y3477D02*
X23400Y6479D01*
X20926Y4755D02*
X23400Y2281D01*
X20893Y3442D02*
X23400Y5949D01*
X20802Y4703D02*
X23400Y2105D01*
X20762Y3488D02*
X23400Y6126D01*
X20605Y3507D02*
X23400Y6303D01*
X16406Y3728D02*
X20103Y7425D01*
X20296Y2203D02*
X20475Y2025D01*
X16347Y3492D02*
X20197Y7343D01*
X16231Y5915D02*
X20121Y2025D01*
X16306Y6016D02*
X20298Y2025D01*
X20541Y2135D02*
X20651Y2025D01*
X20537D02*
X20646Y2134D01*
X20713Y2025D02*
X20881Y2192D01*
X20183Y2025D02*
X20341Y2183D01*
X20360Y2025D02*
X20478Y2143D01*
X20653Y4675D02*
X23303Y2025D01*
X20465Y4686D02*
X23126Y2025D01*
X17344Y600D02*
X23400Y6656D01*
X16990Y600D02*
X23400Y7010D01*
X16813Y600D02*
X23400Y7187D01*
X17167Y600D02*
X23400Y6833D01*
X20890Y2025D02*
X23400Y4535D01*
X20850Y2180D02*
X21005Y2025D01*
X20968Y2239D02*
X21182Y2025D01*
X20712Y2142D02*
X20828Y2025D01*
X20100Y2025D02*
X23400Y2025D01*
X14162Y600D02*
X20806Y7244D01*
X15930Y600D02*
X20161Y4831D01*
X16106Y600D02*
X20266Y4759D01*
X13808Y600D02*
X20440Y7231D01*
X13631Y600D02*
X20309Y7277D01*
X13985Y600D02*
X20597Y7213D01*
X16637Y600D02*
X20720Y4683D01*
X18404Y600D02*
X20126Y2322D01*
X18581Y600D02*
X20225Y2244D01*
X16283Y600D02*
X20389Y4706D01*
X16460Y600D02*
X20535Y4676D01*
X13260Y12598D02*
X20066Y5793D01*
X13150Y12531D02*
X19995Y5686D01*
X16125Y4331D02*
X19971Y8177D01*
X13021Y12484D02*
X19943Y5562D01*
X12865Y12463D02*
X19915Y5413D01*
X12663Y12489D02*
X19926Y5225D01*
X13865Y6337D02*
X15739Y4462D01*
X13857Y6522D02*
X15958Y4420D01*
X13835Y6190D02*
X15577Y4448D01*
X13781Y6067D02*
X15443Y4404D01*
X13710Y5962D02*
X15330Y4341D01*
X13270Y4482D02*
X15043Y6254D01*
X13094Y4482D02*
X15034Y6422D01*
X12822Y4387D02*
X15094Y6659D01*
X11328Y6399D02*
X13242Y4485D01*
X11295Y6608D02*
X13489Y4414D01*
X13533Y4390D02*
X15143Y6001D01*
X13412Y4447D02*
X15083Y6117D01*
X13635Y4316D02*
X15221Y5902D01*
X11309Y6241D02*
X13071Y4479D01*
X11263Y6110D02*
X12932Y4441D01*
X16397Y3896D02*
X20025Y7524D01*
X16357Y4033D02*
X19964Y7639D01*
X16403Y6450D02*
X19922Y2931D01*
X16297Y4149D02*
X19924Y7776D01*
X16219Y4248D02*
X19914Y7943D01*
X16321Y6709D02*
X19960Y3070D01*
X16364Y6135D02*
X19983Y2516D01*
X16400Y6276D02*
X19915Y2761D01*
X16139Y5830D02*
X19982Y1987D01*
X16031Y5762D02*
X19909Y1884D01*
X14869Y600D02*
X20091Y5822D01*
X13721Y4225D02*
X15315Y5819D01*
X13621Y5873D02*
X15234Y4261D01*
X13790Y4117D02*
X15426Y5753D01*
X13517Y5801D02*
X15153Y4164D01*
X11282Y3554D02*
X13546Y5818D01*
X12731Y5879D02*
X15076Y3534D01*
X13394Y5747D02*
X15090Y4051D01*
X11327Y3776D02*
X13270Y5718D01*
X13065Y5722D02*
X15033Y3754D01*
X11271Y4073D02*
X12950Y5752D01*
X11313Y3939D02*
X13093Y5718D01*
X10569Y7084D02*
X17117Y13632D01*
X10314Y7005D02*
X17066Y13757D01*
X8786Y6362D02*
X17068Y14643D01*
X8735Y6664D02*
X17171Y15100D01*
X8776Y6528D02*
X17119Y14871D01*
X8733Y6131D02*
X17124Y14522D01*
X11186Y6817D02*
X17268Y12899D01*
X11102Y6909D02*
X17156Y12963D01*
X11254Y6708D02*
X17452Y12906D01*
X10742Y7080D02*
X17211Y13549D01*
X10882Y7043D02*
X17068Y13229D01*
X11001Y6985D02*
X17083Y13068D01*
X10385Y12468D02*
X15795Y7058D01*
X10208Y12469D02*
X15621Y7055D01*
X10528Y12502D02*
X16054Y6976D01*
X9927Y12572D02*
X15480Y7019D01*
X9737Y12055D02*
X15107Y6686D01*
X9703Y11913D02*
X15057Y6558D01*
X9620Y11818D02*
X15033Y6406D01*
X10624Y4487D02*
X12494Y6357D01*
X9496Y11766D02*
X15053Y6209D01*
X8779Y6295D02*
X10589Y4486D01*
X10752Y12632D02*
X20096Y3288D01*
X10649Y12558D02*
X20019Y3188D01*
X8837Y12072D02*
X19900Y1008D01*
X8730Y11825D02*
X19900Y654D01*
X8808Y11924D02*
X19900Y831D01*
X8709Y6720D02*
X14828Y600D01*
X11198Y5998D02*
X12814Y4382D01*
X11128Y4284D02*
X12727Y5883D01*
X11208Y4187D02*
X12829Y5809D01*
X11032Y4365D02*
X12641Y5973D01*
X11116Y5904D02*
X12714Y4305D01*
X10919Y4428D02*
X12571Y6081D01*
X10786Y4472D02*
X12520Y6207D01*
X11017Y5825D02*
X12630Y4213D01*
X8784Y6467D02*
X10778Y4473D01*
X8743Y6155D02*
X10440Y4458D01*
X10407Y4447D02*
X12509Y6549D01*
X10902Y5764D02*
X12563Y4103D01*
X10765Y5724D02*
X12515Y3974D01*
X10366Y5769D02*
X12517Y3619D01*
X8749Y4026D02*
X10459Y5737D01*
X8781Y3705D02*
X10810Y5734D01*
X15751Y5688D02*
X19900Y1538D01*
X15903Y5712D02*
X19900Y1715D01*
X15554Y5708D02*
X19900Y1362D01*
X15046Y600D02*
X19923Y5477D01*
X15222Y600D02*
X19916Y5293D01*
X15399Y600D02*
X19946Y5147D01*
X15753Y600D02*
X20072Y4919D01*
X15862Y3102D02*
X18364Y600D01*
X15576D02*
X20000Y5024D01*
X15479Y3131D02*
X18010Y600D01*
X15699Y3088D02*
X18187Y600D01*
X13866Y3840D02*
X15714Y5688D01*
X13865Y3862D02*
X17126Y600D01*
X13850Y3647D02*
X15920Y5717D01*
X13840Y3991D02*
X15557Y5707D01*
X13794Y4109D02*
X17303Y600D01*
X13821Y3552D02*
X16773Y600D01*
X13762Y3434D02*
X16596Y600D01*
X13859Y3691D02*
X16950Y600D01*
X13483Y3183D02*
X16066Y600D01*
X13685Y3334D02*
X16419Y600D01*
X18228D02*
X20044Y2416D01*
X18051Y600D02*
X19978Y2527D01*
X19900Y600D02*
Y1811D01*
X17521Y600D02*
X19943Y3022D01*
X17697Y600D02*
X19913Y2815D01*
X17874Y600D02*
X19932Y2658D01*
X19642Y600D02*
X19900Y859D01*
X19465Y600D02*
X19900Y1035D01*
X19819Y600D02*
X19900Y682D01*
X19112Y600D02*
X19900Y1389D01*
X19288Y600D02*
X19900Y1212D01*
X16365Y4013D02*
X19778Y600D01*
X16392Y3632D02*
X19425Y600D01*
X16407Y3794D02*
X19601Y600D01*
X16286Y3385D02*
X19071Y600D01*
X16206Y3289D02*
X18894Y600D01*
X16349Y3498D02*
X19248Y600D01*
X18758D02*
X19900Y1743D01*
X16109Y3208D02*
X18718Y600D01*
X18935D02*
X19900Y1566D01*
X13593Y3250D02*
X16243Y600D01*
X15996Y3145D02*
X18541Y600D01*
X13248Y5716D02*
X15047Y3917D01*
X10985Y3206D02*
X13591Y600D01*
X10250Y3234D02*
X12884Y600D01*
X10096D02*
X12755Y3259D01*
X10273Y600D02*
X12863Y3190D01*
X10803Y600D02*
X13333Y3130D01*
X10720Y3117D02*
X13237Y600D01*
X10864Y3150D02*
X13414Y600D01*
X10541Y3120D02*
X13061Y600D01*
X10449D02*
X12989Y3140D01*
X10626Y600D02*
X13140Y3114D01*
X10599Y5714D02*
X12493Y3819D01*
X9212Y600D02*
X12498Y3886D01*
X8787Y3813D02*
X12000Y600D01*
X8782Y3883D02*
X10613Y5713D01*
X9035Y600D02*
X12593Y4158D01*
X9742Y600D02*
X12590Y3447D01*
X9565Y600D02*
X12533Y3568D01*
X9919Y600D02*
X12664Y3345D01*
X8771Y3652D02*
X11823Y600D01*
X9389D02*
X12498Y3710D01*
X12924Y600D02*
X15462Y3138D01*
X12747Y600D02*
X15346Y3198D01*
X13455Y600D02*
X16003Y3148D01*
X12394Y600D02*
X15164Y3370D01*
X12217Y600D02*
X15098Y3481D01*
X12571Y600D02*
X15247Y3276D01*
X13278Y600D02*
X15767Y3089D01*
X13200Y3113D02*
X15712Y600D01*
X13354Y3135D02*
X15889Y600D01*
X12999Y3137D02*
X15535Y600D01*
X13101D02*
X15599Y3098D01*
X11687Y600D02*
X15062Y3976D01*
X11864Y600D02*
X15033Y3769D01*
X12040Y600D02*
X15052Y3612D01*
X11313Y3938D02*
X14652Y600D01*
X8749Y4028D02*
X12177Y600D01*
X11326Y3749D02*
X14475Y600D01*
X11246Y3475D02*
X14121Y600D01*
X11176Y3369D02*
X13944Y600D01*
X11298Y3600D02*
X14298Y600D01*
X8727Y3519D02*
X11646Y600D01*
X11089Y3279D02*
X13768Y600D01*
X8611Y27046D02*
X9565Y28000D01*
X8505Y27117D02*
X9388Y28000D01*
X8552Y23099D02*
X14454Y29000D01*
X8388Y23111D02*
X14277Y29000D01*
X6605Y23096D02*
X12509Y29000D01*
X6764Y23078D02*
X12686Y29000D01*
X5813Y28000D02*
X10677Y23136D01*
X5637Y28000D02*
X10527Y23110D01*
X5000Y28000D02*
X10250D01*
X5460D02*
X10428Y23032D01*
X7581Y28000D02*
X8448Y27134D01*
X7404Y28000D02*
X8289Y27115D01*
X7758Y28000D02*
X8727Y27031D01*
X7228Y28000D02*
X8186Y27042D01*
X7051Y28000D02*
X8123Y26928D01*
X6874Y28000D02*
X8135Y26739D01*
X8343Y27132D02*
X9211Y28000D01*
X8111D02*
X8975Y27136D01*
X7935Y28000D02*
X8825Y27109D01*
X6186Y15782D02*
X19404Y29000D01*
X6138Y15911D02*
X19227Y29000D01*
X6050Y12995D02*
X22055Y29000D01*
X600Y13378D02*
X16222Y29000D01*
X600Y13555D02*
X16045Y29000D01*
X5916Y13037D02*
X21879Y29000D01*
X8465Y28000D02*
X16705Y19759D01*
X8642Y28000D02*
X16669Y19973D01*
X8288Y28000D02*
X16775Y19514D01*
X6520Y28000D02*
X17415Y17105D01*
X6344Y28000D02*
X17249Y17094D01*
X6167Y28000D02*
X17143Y17024D01*
X6918Y22701D02*
X13216Y29000D01*
X6930Y22890D02*
X13040Y29000D01*
X6901Y22331D02*
X13570Y29000D01*
X6817Y22424D02*
X13393Y29000D01*
X6867Y23004D02*
X12863Y29000D01*
X600Y17621D02*
X11979Y29000D01*
X8659Y23028D02*
X14631Y29000D01*
X6940Y22193D02*
X13747Y29000D01*
X5990Y28000D02*
X12643Y21347D01*
X5283Y28000D02*
X10370Y22913D01*
X5106Y28000D02*
X10403Y22704D01*
X600Y30915D02*
X8402Y23113D01*
X600Y30738D02*
X8278Y23060D01*
X600Y30562D02*
X8196Y22965D01*
X600Y32329D02*
X10476Y22454D01*
X600Y32153D02*
X10395Y22358D01*
X600Y31976D02*
X10363Y22213D01*
X600Y29678D02*
X8182Y22096D01*
X600Y29854D02*
X8174Y22280D01*
X600Y21157D02*
X7443Y28000D01*
X600Y30208D02*
X8342Y22466D01*
X600Y30385D02*
X8163Y22822D01*
X600Y30031D02*
X8238Y22394D01*
X600Y28440D02*
X6576Y22465D01*
X600Y28263D02*
X6461Y22402D01*
X600Y28087D02*
X6388Y22299D01*
X600Y29147D02*
X6647Y23100D01*
X600Y28971D02*
X6509Y23062D01*
X600Y28794D02*
X6417Y22977D01*
X600Y21510D02*
X7090Y28000D01*
X600Y21687D02*
X6913Y28000D01*
X600Y21333D02*
X7267Y28000D01*
X600Y22041D02*
X6559Y28000D01*
X600Y21864D02*
X6736Y28000D01*
X600Y31092D02*
X13337Y18355D01*
X600Y31269D02*
X13117Y18752D01*
X600Y17798D02*
X11802Y29000D01*
X600Y31799D02*
X13412Y18987D01*
X600Y31622D02*
X13267Y18955D01*
X600Y31445D02*
X13171Y18874D01*
X600Y15500D02*
X14100Y29000D01*
X600Y15676D02*
X13924Y29000D01*
X600Y13732D02*
X15868Y29000D01*
X600Y17444D02*
X12156Y29000D01*
X600Y17267D02*
X12333Y29000D01*
X600Y20273D02*
X8327Y28000D01*
X600Y20449D02*
X8151Y28000D01*
X600Y17975D02*
X11625Y29000D01*
X600Y20803D02*
X7797Y28000D01*
X600Y20980D02*
X7620Y28000D01*
X600Y20626D02*
X7974Y28000D01*
X600Y19566D02*
X9034Y28000D01*
X600Y19742D02*
X8858Y28000D01*
X600Y19389D02*
X8118Y26907D01*
X600Y20096D02*
X8504Y28000D01*
X600Y19919D02*
X8681Y28000D01*
X8592Y26636D02*
X14539Y20688D01*
X8478Y26573D02*
X14453Y20598D01*
X8289Y26585D02*
X14413Y20461D01*
X5911Y16037D02*
X16703Y26829D01*
X8692Y22355D02*
X12518Y26180D01*
X8604Y22443D02*
X12466Y26305D01*
X8680Y22658D02*
X13140Y18198D01*
X8585Y22576D02*
X13114Y18048D01*
X8471Y22487D02*
X8542Y22558D01*
X6689Y22473D02*
X6764Y22547D01*
X8442Y22543D02*
X8502Y22483D01*
X6690Y22527D02*
X6765Y22452D01*
X600Y16030D02*
X6509Y21939D01*
X8644Y21988D02*
X17207Y13424D01*
X8530Y21924D02*
X17115Y13340D01*
X8346Y21932D02*
X17065Y13213D01*
X6047Y15997D02*
X16872Y26822D01*
X6140Y12908D02*
X14451Y21219D01*
X6186Y12777D02*
X14420Y21011D01*
X6099Y14458D02*
X12448Y20806D01*
X6169Y14351D02*
X12263Y20445D01*
X6180Y14185D02*
X12301Y20306D01*
X5988Y14524D02*
X12341Y20877D01*
X5811Y14523D02*
X12276Y20988D01*
X600Y14262D02*
X8295Y21958D01*
X600Y15853D02*
X6647Y21900D01*
X600Y14085D02*
X8428Y21913D01*
X600Y13202D02*
X10417Y23019D01*
X600Y14793D02*
X8363Y22556D01*
X600Y13025D02*
X10368Y22793D01*
X8574Y12337D02*
X9676Y13439D01*
X6162Y15631D02*
X9455Y12337D01*
X8706Y12292D02*
X9614Y13200D01*
X6085Y15530D02*
X9313Y12303D01*
X6121Y14434D02*
X8325Y12230D01*
X600Y18151D02*
X9020Y26571D01*
X600Y18858D02*
X8316Y26575D01*
X600Y26142D02*
X12907Y13835D01*
X600Y18505D02*
X8744Y26649D01*
X600Y18682D02*
X8498Y26580D01*
X600Y18328D02*
X8852Y26580D01*
X600Y13909D02*
X12754Y26063D01*
X600Y23490D02*
X10254Y13836D01*
X600Y23314D02*
X10105Y13809D01*
X600Y25965D02*
X12737Y13828D01*
X600Y23667D02*
X10445Y13822D01*
X600Y25789D02*
X12599Y13790D01*
X600Y15146D02*
X8181Y22728D01*
X600Y16914D02*
X6387Y22701D01*
X600Y14969D02*
X8252Y22621D01*
X600Y19035D02*
X8204Y26639D01*
X600Y19212D02*
X8133Y26745D01*
X600Y15323D02*
X8169Y22892D01*
X600Y14616D02*
X8163Y22179D01*
X600Y16207D02*
X6417Y22023D01*
X600Y14439D02*
X8207Y22046D01*
X600Y16737D02*
X6461Y22598D01*
X600Y16560D02*
X6575Y22536D01*
X600Y25258D02*
X12298Y13560D01*
X600Y25081D02*
X12231Y13450D01*
X600Y24905D02*
X12184Y13321D01*
X600Y26319D02*
X13151Y13768D01*
X600Y25612D02*
X12481Y13730D01*
X600Y25435D02*
X12382Y13653D01*
X600Y12671D02*
X10522Y22593D01*
X600Y12848D02*
X10424Y22672D01*
X600Y12318D02*
X10388Y22106D01*
X600Y24728D02*
X12163Y13165D01*
X600Y24551D02*
X12189Y12963D01*
X600Y22607D02*
X9708Y13499D01*
X600Y22430D02*
X9652Y13378D01*
X600Y12494D02*
X10365Y22259D01*
X600Y23137D02*
X9979Y13758D01*
X600Y22960D02*
X9872Y13688D01*
X600Y22783D02*
X9782Y13602D01*
X600Y21900D02*
X9722Y12777D01*
X600Y20309D02*
X8572Y12337D01*
X600Y20132D02*
X8424Y12308D01*
X600Y22253D02*
X9618Y13235D01*
X600Y22076D02*
X9619Y13058D01*
X3717Y35400D02*
X5000Y34117D01*
X3893Y35400D02*
X5000Y34293D01*
X3540Y35400D02*
X5000Y33940D01*
X3186Y35400D02*
X5000Y33586D01*
X3363Y35400D02*
X5000Y33763D01*
X3010Y35400D02*
X5000Y33410D01*
X3280Y33206D02*
X5000Y34926D01*
X3162Y33265D02*
X5000Y35103D01*
X3384Y33133D02*
X5000Y34749D01*
X2833Y35400D02*
X5000Y33233D01*
X3030Y33309D02*
X5000Y35279D01*
X2656Y35400D02*
X5000Y33056D01*
X2878Y33334D02*
X4944Y35400D01*
X2699Y33332D02*
X4767Y35400D01*
X2466Y33276D02*
X4590Y35400D01*
X888D02*
X2965Y33323D01*
X711Y35400D02*
X2774Y33337D01*
X1065Y35400D02*
X3234Y33231D01*
X4601Y35400D02*
X5000Y35001D01*
X4777Y35400D02*
X5000Y35177D01*
X4424Y35400D02*
X5000Y34824D01*
X4247Y35400D02*
X5000Y34647D01*
X4070Y35400D02*
X5000Y34470D01*
X3719Y32584D02*
X5000Y33865D01*
X3680Y32722D02*
X5000Y34042D01*
X3737Y32426D02*
X5000Y33688D01*
X1419Y35400D02*
X5000Y31819D01*
X3626Y32844D02*
X5000Y34219D01*
X1242Y35400D02*
X5000Y31642D01*
X3723Y32234D02*
X5000Y33512D01*
X3723Y32565D02*
X5000Y31288D01*
X3631Y31966D02*
X5000Y33335D01*
X3631Y32834D02*
X5000Y31465D01*
X2479Y35400D02*
X4964Y32915D01*
X2302Y35400D02*
X4871Y32832D01*
X2126Y35400D02*
X4795Y32731D01*
X1949Y35400D02*
X4738Y32611D01*
X1772Y35400D02*
X4706Y32466D01*
X1595Y35400D02*
X4714Y32282D01*
X3557Y32953D02*
X5000Y34396D01*
X3477Y33049D02*
X5000Y34572D01*
Y32939D02*
Y35400D01*
X600Y33001D02*
X2999Y35400D01*
X600Y33178D02*
X2822Y35400D01*
X600Y32824D02*
X3176Y35400D01*
X600Y33531D02*
X2469Y35400D01*
X600Y33708D02*
X2292Y35400D01*
X600Y33354D02*
X2646Y35400D01*
X600Y34981D02*
X2356Y33225D01*
X600Y34804D02*
X2247Y33157D01*
X600Y34628D02*
X2151Y33077D01*
X600Y35400D02*
X5000D01*
X600Y35335D02*
X2615Y33319D01*
X600Y35158D02*
X2478Y33280D01*
X600Y34592D02*
X1408Y35400D01*
X600Y34769D02*
X1231Y35400D01*
X600Y34415D02*
X1585Y35400D01*
X600Y35122D02*
X878Y35400D01*
X600Y35299D02*
X701Y35400D01*
X600Y34945D02*
X1055Y35400D01*
X600Y33885D02*
X2115Y35400D01*
X600Y34451D02*
X2067Y32984D01*
X600Y34274D02*
X1994Y32880D01*
X600Y34238D02*
X1762Y35400D01*
X600Y34061D02*
X1939Y35400D01*
X600Y28758D02*
X5000Y33158D01*
X600Y33213D02*
X5000Y28813D01*
X600Y33037D02*
X5000Y28637D01*
X600Y31763D02*
X4237Y35400D01*
X600Y31940D02*
X4060Y35400D01*
X600Y31587D02*
X4413Y35400D01*
X600Y32683D02*
X5000Y28283D01*
X600Y28405D02*
X4714Y32518D01*
X600Y32506D02*
X5000Y28106D01*
X600Y28581D02*
X5000Y32981D01*
X600Y32860D02*
X5000Y28460D01*
X600Y34097D02*
X1935Y32762D01*
X600Y33920D02*
X1891Y32629D01*
X600Y32117D02*
X3883Y35400D01*
X600Y32470D02*
X3530Y35400D01*
X600Y32647D02*
X3353Y35400D01*
X600Y32294D02*
X3706Y35400D01*
X600Y33390D02*
X1924Y32066D01*
X600Y31410D02*
X1924Y32734D01*
X600Y31233D02*
X1868Y32501D01*
X600Y33744D02*
X1866Y32478D01*
X600Y33567D02*
X1868Y32299D01*
X3029Y31491D02*
X5000Y29520D01*
X3162Y31535D02*
X5000Y29697D01*
Y28000D02*
Y31861D01*
X2699Y31468D02*
X5000Y29167D01*
X2878Y31466D02*
X5000Y29344D01*
X2466Y31524D02*
X5000Y28990D01*
X600Y22217D02*
X6383Y28000D01*
X600Y27910D02*
X6369Y22141D01*
X600Y17091D02*
X6369Y22860D01*
X600Y22748D02*
X5852Y28000D01*
X600Y23455D02*
X5145Y28000D01*
X600Y22394D02*
X6206Y28000D01*
X3719Y32215D02*
X5000Y30935D01*
X3737Y32374D02*
X5000Y31111D01*
X3680Y32078D02*
X5000Y30758D01*
X3557Y31847D02*
X5000Y30404D01*
X3625Y31956D02*
X5000Y30581D01*
X3477Y31751D02*
X5000Y30228D01*
X3384Y31667D02*
X5000Y30051D01*
X3280Y31594D02*
X5000Y29874D01*
X600Y16384D02*
X6367Y22151D01*
X600Y18364D02*
X5928Y13036D01*
X600Y21369D02*
X5934Y16036D01*
X600Y19778D02*
X5846Y14532D01*
X600Y19955D02*
X6084Y14471D01*
X600Y19601D02*
X5724Y14477D01*
X600Y20662D02*
X5645Y15617D01*
X600Y19425D02*
X5644Y14381D01*
X600Y21192D02*
X5781Y16012D01*
X600Y21016D02*
X5680Y15935D01*
X600Y20839D02*
X5621Y15818D01*
X600Y18010D02*
X5678Y12933D01*
X600Y17834D02*
X5620Y12814D01*
X600Y17657D02*
X5652Y12605D01*
X600Y19248D02*
X5613Y14235D01*
X600Y18187D02*
X5777Y13010D01*
X600Y27521D02*
X4964Y31885D01*
X600Y27697D02*
X4871Y31968D01*
X600Y27344D02*
X5000Y31744D01*
X600Y28051D02*
X4738Y32189D01*
X600Y28228D02*
X4706Y32334D01*
X600Y27874D02*
X4795Y32069D01*
X600Y26814D02*
X5000Y31214D01*
X600Y26990D02*
X5000Y31390D01*
X600Y26637D02*
X5000Y31037D01*
X600Y28935D02*
X3234Y31569D01*
X600Y29112D02*
X2966Y31477D01*
X600Y27167D02*
X5000Y31567D01*
X600Y30349D02*
X2067Y31816D01*
X600Y30526D02*
X1994Y31920D01*
X600Y30172D02*
X2151Y31723D01*
X600Y30879D02*
X1891Y32170D01*
X600Y31056D02*
X1866Y32322D01*
X600Y30703D02*
X1935Y32038D01*
X600Y29465D02*
X2616Y31481D01*
X600Y29642D02*
X2478Y31520D01*
X600Y29288D02*
X2774Y31463D01*
X600Y29996D02*
X2247Y31643D01*
X600Y29819D02*
X2356Y31574D01*
X600Y23985D02*
X5000Y28385D01*
X600Y24162D02*
X5000Y28562D01*
X600Y23808D02*
X5000Y28208D01*
X600Y24339D02*
X5000Y28739D01*
X600Y24515D02*
X5000Y28915D01*
X600Y28617D02*
X6368Y22850D01*
X600Y22924D02*
X5676Y28000D01*
X600Y23101D02*
X5499Y28000D01*
X600Y22571D02*
X6029Y28000D01*
X600Y23632D02*
X5000Y28032D01*
X600Y23278D02*
X5322Y28000D01*
X600Y25753D02*
X5000Y30153D01*
X600Y25930D02*
X5000Y30330D01*
X600Y25576D02*
X5000Y29976D01*
X600Y26283D02*
X5000Y30683D01*
X600Y26460D02*
X5000Y30860D01*
X600Y26106D02*
X5000Y30506D01*
X600Y24869D02*
X5000Y29269D01*
X600Y25046D02*
X5000Y29446D01*
X600Y24692D02*
X5000Y29092D01*
X600Y25399D02*
X5000Y29799D01*
X600Y25223D02*
X5000Y29623D01*
X6917Y22300D02*
X20630Y8587D01*
X6930Y22111D02*
X20466Y8574D01*
X6867Y21996D02*
X20331Y8533D01*
X6697Y28000D02*
X23400Y11297D01*
X6817Y22577D02*
X20856Y8538D01*
X6764Y21923D02*
X20216Y8470D01*
X8388Y7024D02*
X17284Y15920D01*
X8257Y7069D02*
X17166Y15979D01*
X8500Y6959D02*
X17489Y15948D01*
X6606Y21904D02*
X20119Y8391D01*
X8098Y7088D02*
X17089Y16079D01*
X7887Y7054D02*
X17064Y16230D01*
X5129Y10836D02*
X14519Y20226D01*
X5259Y10789D02*
X13117Y18648D01*
X5346Y10699D02*
X13172Y18525D01*
X3796Y11448D02*
X12513Y20165D01*
X3767Y11596D02*
X12386Y20214D01*
X600Y7014D02*
X14478Y20892D01*
X5387Y10564D02*
X13268Y18445D01*
X5767Y15495D02*
X9166Y12096D01*
X600Y16950D02*
X10481Y7069D01*
X600Y17126D02*
X10639Y7088D01*
X600Y17303D02*
X10848Y7055D01*
X6902Y22669D02*
X23400Y6171D01*
X6940Y22807D02*
X23400Y6347D01*
X3732Y600D02*
X23400Y20268D01*
X3523Y4987D02*
X20303Y21767D01*
X3337Y4979D02*
X20142Y21783D01*
X3688Y4976D02*
X23400Y24688D01*
X6383Y600D02*
X23400Y17617D01*
X8673Y3420D02*
X23400Y18147D01*
X8505Y600D02*
X23400Y15495D01*
X6030Y600D02*
X23400Y17970D01*
X6207Y600D02*
X23400Y17793D01*
X600Y5423D02*
X13137Y17960D01*
X600Y5600D02*
X13115Y18115D01*
X3120Y4938D02*
X20038Y21856D01*
X600Y6838D02*
X14577Y20815D01*
X600Y6661D02*
X14414Y20474D01*
X600Y6484D02*
X14441Y20325D01*
X6186Y15784D02*
X15175Y6794D01*
X600Y5070D02*
X13327Y17797D01*
X600Y17480D02*
X17480Y600D01*
X600Y5247D02*
X13211Y17858D01*
X600Y4893D02*
X13521Y17814D01*
X600Y9666D02*
X19934Y29000D01*
X600Y9843D02*
X19757Y29000D01*
X600Y8075D02*
X21525Y29000D01*
X600Y11434D02*
X18166Y29000D01*
X600Y11611D02*
X17989Y29000D01*
X600Y10020D02*
X19580Y29000D01*
X600Y7898D02*
X21702Y29000D01*
X600Y27203D02*
X19913Y7890D01*
X600Y27026D02*
X19950Y7676D01*
X600Y27733D02*
X20038Y8295D01*
X600Y27556D02*
X19973Y8183D01*
X600Y27380D02*
X19929Y8050D01*
X600Y11964D02*
X10582Y21946D01*
X600Y12141D02*
X10464Y22005D01*
X600Y11787D02*
X10783Y21970D01*
X600Y11080D02*
X16528Y27008D01*
X600Y11257D02*
X16524Y27181D01*
X600Y10903D02*
X16595Y26898D01*
X600Y9489D02*
X12278Y21167D01*
X600Y16773D02*
X10350Y7023D01*
X600Y16596D02*
X10238Y6958D01*
X600Y21723D02*
X15361Y6961D01*
X600Y19071D02*
X12742Y6930D01*
X600Y4539D02*
X23400Y27339D01*
X600Y4716D02*
X23400Y27516D01*
X600Y26672D02*
X23400Y3872D01*
X600Y29324D02*
X23400Y6524D01*
X600Y29501D02*
X23400Y6701D01*
X600Y26849D02*
X23400Y4049D01*
X600Y24198D02*
X22773Y2025D01*
X600Y24021D02*
X22596Y2025D01*
X600Y23844D02*
X22419Y2025D01*
X600Y26496D02*
X23400Y3696D01*
X600Y24374D02*
X22949Y2025D01*
X600Y18718D02*
X12581Y6737D01*
X600Y16419D02*
X10144Y6876D01*
X600Y18541D02*
X12527Y6614D01*
X600Y21546D02*
X15260Y6886D01*
X600Y18894D02*
X12653Y6841D01*
X600Y20485D02*
X19900Y1185D01*
X600Y15889D02*
X9964Y6525D01*
X600Y15712D02*
X9954Y6359D01*
X600Y15535D02*
X10009Y6126D01*
X600Y16243D02*
X10065Y6777D01*
X600Y16066D02*
X10004Y6662D01*
X8673Y6779D02*
X17092Y15198D01*
X8595Y6877D02*
X17063Y15346D01*
X6186Y12778D02*
X12496Y6468D01*
X6031Y13994D02*
X12970Y7055D01*
X6160Y12627D02*
X12502Y6285D01*
X6083Y12528D02*
X12659Y5951D01*
X8684Y6037D02*
X10315Y4406D01*
X8620Y4250D02*
X10223Y5854D01*
X8693Y4147D02*
X10332Y5786D01*
X8609Y11769D02*
X13302Y7077D01*
X8391Y11811D02*
X13117Y7085D01*
X8608Y5937D02*
X10209Y4336D01*
X8297Y4459D02*
X9997Y6158D01*
X8148Y4486D02*
X9960Y6298D01*
X7958Y4473D02*
X9956Y6471D01*
X8529Y4337D02*
X10131Y5938D01*
X8423Y4407D02*
X10055Y6039D01*
X8515Y5852D02*
X10119Y4249D01*
X8406Y5785D02*
X10046Y4145D01*
X8278Y5736D02*
X9990Y4024D01*
X8663Y3406D02*
X11470Y600D01*
X8583Y3310D02*
X11293Y600D01*
X8682D02*
X23400Y15318D01*
X8371Y3168D02*
X10939Y600D01*
X7849Y3160D02*
X10409Y600D01*
X8485Y3231D02*
X11116Y600D01*
X8236Y3126D02*
X10762Y600D01*
X8151D02*
X10664Y3113D01*
X8328Y600D02*
X10886Y3158D01*
X7974Y600D02*
X10501Y3127D01*
X8073Y3113D02*
X10586Y600D01*
X7926Y5735D02*
X9960Y3701D01*
X8124Y5713D02*
X9957Y3880D01*
X6560Y600D02*
X9993Y4033D01*
X6737Y600D02*
X9953Y3816D01*
X6914Y600D02*
X9968Y3654D01*
X7621Y600D02*
X10253Y3232D01*
X7444Y600D02*
X10156Y3312D01*
X7798Y600D02*
X10367Y3169D01*
X7091Y600D02*
X10012Y3521D01*
X7267Y600D02*
X10075Y3408D01*
X5885Y13963D02*
X12847Y7001D01*
X4330Y4734D02*
X12315Y12719D01*
X4432Y4659D02*
X12402Y12629D01*
X4103Y4860D02*
X12192Y12950D01*
X3838Y4949D02*
X12176Y13287D01*
X4221Y4801D02*
X12244Y12825D01*
X4764Y4284D02*
X12950Y12470D01*
X4692Y4389D02*
X12770Y12467D01*
X4828Y4171D02*
X13242Y12585D01*
X4526Y4577D02*
X12505Y12555D01*
X4526Y4577D02*
X12505Y12555D01*
X4613Y4487D02*
X12626Y12500D01*
X3975Y4910D02*
X12164Y13099D01*
X5968Y15471D02*
X9218Y12220D01*
X2836Y4831D02*
X10496Y12491D01*
X600Y12884D02*
X10074Y3410D01*
X600Y3655D02*
X9722Y12778D01*
X600Y2772D02*
X10291Y12463D01*
X600Y3125D02*
X9288Y11813D01*
X600Y3832D02*
X8531Y11763D01*
X600Y2948D02*
X9416Y11764D01*
X600Y3479D02*
X9163Y12041D01*
X600Y3302D02*
X9202Y11904D01*
X5755Y12502D02*
X17657Y600D01*
X3555D02*
X17368Y14413D01*
X5964Y12470D02*
X17834Y600D01*
X600Y12707D02*
X12707Y600D01*
X600Y12530D02*
X12530Y600D01*
X3378D02*
X17221Y14443D01*
X5358Y10424D02*
X15182Y600D01*
X5280Y10326D02*
X15005Y600D01*
X5387Y10572D02*
X15359Y600D01*
X600Y12353D02*
X12353Y600D01*
X600D02*
X19900D01*
X600Y9702D02*
X9702Y600D01*
X600Y9525D02*
X9525Y600D01*
X600Y9348D02*
X9348Y600D01*
X600Y10232D02*
X10232Y600D01*
X600Y10055D02*
X10055Y600D01*
X600Y9879D02*
X9879Y600D01*
X600Y8818D02*
X8818Y600D01*
X600Y8641D02*
X8641Y600D01*
X3909D02*
X10035Y6726D01*
X600Y9171D02*
X9171Y600D01*
X600Y8995D02*
X8995Y600D01*
X6127Y14074D02*
X8311Y11891D01*
X6182Y14196D02*
X8269Y12109D01*
X3755Y11319D02*
X7995Y7079D01*
X3568Y11750D02*
X5799Y13981D01*
X3346Y11705D02*
X5692Y14051D01*
X3688Y11694D02*
X5965Y13970D01*
X4941Y10310D02*
X8167Y7084D01*
X5160Y10269D02*
X8420Y7009D01*
X3669Y11229D02*
X7855Y7043D01*
X3539Y11183D02*
X7737Y6984D01*
X3797Y11455D02*
X4860Y10391D01*
X600Y8429D02*
X3382Y11211D01*
X600Y8605D02*
X3284Y11290D01*
X600Y8252D02*
X3530Y11182D01*
X600Y5777D02*
X5086Y10263D01*
X600Y5954D02*
X4951Y10304D01*
X600Y7934D02*
X3547Y4987D01*
X600Y6307D02*
X4814Y10521D01*
X600Y6130D02*
X4861Y10391D01*
X4987Y3446D02*
X7541Y6000D01*
X4983Y3619D02*
X7476Y6112D01*
X4966Y3249D02*
X7623Y5905D01*
X600Y11116D02*
X7531Y4185D01*
X600Y10939D02*
X7468Y4071D01*
X600Y10409D02*
X7460Y3549D01*
X4720Y2649D02*
X7836Y5765D01*
X4905Y3010D02*
X7721Y5827D01*
X3201Y600D02*
X8369Y5767D01*
X2848Y600D02*
X7972Y5724D01*
X3025Y600D02*
X8138Y5714D01*
X600Y8111D02*
X3743Y4967D01*
X600Y7757D02*
X3375Y4982D01*
X600Y8288D02*
X3979Y4908D01*
X600Y10762D02*
X7426Y3936D01*
X600Y8464D02*
X4330Y4735D01*
X600Y10586D02*
X7413Y3773D01*
X4883Y4049D02*
X7446Y6613D01*
X4928Y3917D02*
X7412Y6402D01*
X4962Y3775D02*
X7431Y6243D01*
X600Y7580D02*
X3220Y4961D01*
X600Y7404D02*
X3077Y4926D01*
X600Y9312D02*
X5627Y14339D01*
X600Y9136D02*
X5626Y14162D01*
X600Y13944D02*
X7637Y6908D01*
X600Y10373D02*
X5739Y15512D01*
X600Y10550D02*
X5653Y15603D01*
X600Y10196D02*
X5868Y15464D01*
X600Y7368D02*
X5742Y12510D01*
X600Y7545D02*
X5655Y12600D01*
X600Y7191D02*
X5873Y12464D01*
X600Y13768D02*
X7552Y6815D01*
X600Y7721D02*
X5613Y12734D01*
X600Y13591D02*
X7485Y6706D01*
X600Y15005D02*
X4876Y10730D01*
X600Y14652D02*
X3496Y11756D01*
X600Y14828D02*
X4819Y10610D01*
X600Y15359D02*
X5122Y10837D01*
X600Y15182D02*
X4974Y10808D01*
X600Y10727D02*
X5613Y15739D01*
X600Y8959D02*
X3273Y11632D01*
X600Y14121D02*
X3224Y11498D01*
X600Y8782D02*
X3228Y11410D01*
X600Y14475D02*
X3360Y11714D01*
X600Y14298D02*
X3270Y11628D01*
X600Y4363D02*
X8263Y12026D01*
X600Y12000D02*
X8113Y4487D01*
X600Y4186D02*
X8308Y11894D01*
X600Y13414D02*
X7436Y6578D01*
X600Y13061D02*
X7435Y6226D01*
X600Y12177D02*
X8328Y4449D01*
X600Y11646D02*
X7819Y4427D01*
X600Y11470D02*
X7706Y4363D01*
X600Y11293D02*
X7610Y4283D01*
X600Y11823D02*
X7952Y4471D01*
X600Y4009D02*
X8397Y11806D01*
X600Y7050D02*
X2825Y4825D01*
X600Y6873D02*
X2712Y4762D01*
X600Y6697D02*
X2607Y4690D01*
X600Y13237D02*
X7413Y6424D01*
X600Y7227D02*
X2946Y4881D01*
X600Y35400D02*
X600Y600D01*
Y6166D02*
X2338Y4428D01*
X600Y5989D02*
X2263Y4326D01*
X600Y5813D02*
X2196Y4216D01*
X600Y6520D02*
X2510Y4610D01*
X600Y6343D02*
X2420Y4523D01*
X4262Y600D02*
X7414Y3752D01*
X4326Y2263D02*
X5989Y600D01*
X4428Y2338D02*
X6166Y600D01*
X4085D02*
X7427Y3942D01*
X4216Y2196D02*
X5813Y600D01*
X3970Y2089D02*
X5459Y600D01*
X3832Y2050D02*
X5282Y600D01*
X4098Y2138D02*
X5636Y600D01*
X3516Y2013D02*
X4929Y600D01*
X3330Y2022D02*
X4752Y600D01*
X3682Y2024D02*
X5106Y600D01*
X2671D02*
X4351Y2280D01*
X2494Y600D02*
X3990Y2095D01*
X2823Y2176D02*
X4398Y600D01*
X1434D02*
X2951Y2117D01*
X1257Y600D02*
X2829Y2172D01*
X1610Y600D02*
X3083Y2072D01*
X2318Y600D02*
X3751Y2034D01*
X2141Y600D02*
X3554Y2013D01*
X3111Y2064D02*
X4575Y600D01*
X1787D02*
X3225Y2038D01*
X1964Y600D02*
X3381Y2017D01*
X4982Y3375D02*
X7757Y600D01*
X4969D02*
X7650Y3280D01*
X4987Y3547D02*
X7934Y600D01*
X4735Y4330D02*
X8464Y600D01*
X4908Y3979D02*
X8288Y600D01*
X4967Y3743D02*
X8111Y600D01*
X5676D02*
X8195Y3119D01*
X5500Y600D02*
X8017Y3118D01*
X5853Y600D02*
X8481Y3227D01*
X5146Y600D02*
X7753Y3207D01*
X5323Y600D02*
X7874Y3151D01*
X4926Y3077D02*
X7404Y600D01*
X4881Y2946D02*
X7227Y600D01*
X4961Y3220D02*
X7580Y600D01*
X4616D02*
X7493Y3477D01*
X4439Y600D02*
X7441Y3603D01*
X4792Y600D02*
X7563Y3371D01*
X4762Y2712D02*
X6873Y600D01*
X4690Y2607D02*
X6697Y600D01*
X4825Y2825D02*
X7050Y600D01*
X4523Y2420D02*
X6343Y600D01*
X4610Y2510D02*
X6520Y600D01*
X600Y2595D02*
X2169Y4163D01*
X600Y1534D02*
X2090Y3025D01*
X600Y4222D02*
X4222Y600D01*
X600Y5636D02*
X2138Y4098D01*
X600Y5459D02*
X2089Y3970D01*
X600Y4398D02*
X2176Y2823D01*
X600Y650D02*
X2423Y2474D01*
X600Y827D02*
X2341Y2568D01*
X600Y650D02*
X2423Y2474D01*
X600Y1181D02*
X2199Y2779D01*
X600Y1357D02*
X2140Y2897D01*
X600Y1004D02*
X2266Y2670D01*
X600Y4575D02*
X2064Y3111D01*
X600Y4752D02*
X2022Y3330D01*
X600Y2418D02*
X2062Y3880D01*
X600Y5282D02*
X2050Y3832D01*
X600Y5106D02*
X2024Y3682D01*
X600Y4929D02*
X2013Y3516D01*
X600Y1711D02*
X2051Y3162D01*
X600Y1888D02*
X2024Y3312D01*
X600Y1040D02*
X1040Y600D01*
X600Y2241D02*
X2021Y3663D01*
X600Y2064D02*
X2013Y3477D01*
X600Y3515D02*
X3515Y600D01*
X600Y3338D02*
X3338Y600D01*
X600Y3161D02*
X3161Y600D01*
X600Y4045D02*
X4045Y600D01*
X600Y3868D02*
X3868Y600D01*
X600Y3691D02*
X3691Y600D01*
X600Y2631D02*
X2631Y600D01*
X903D02*
X2611Y2308D01*
X1080Y600D02*
X2716Y2236D01*
X600Y2984D02*
X2984Y600D01*
X600Y2807D02*
X2807Y600D01*
X600Y1924D02*
X1924Y600D01*
X600Y1747D02*
X1747Y600D01*
X727D02*
X2513Y2387D01*
X600Y2454D02*
X2454Y600D01*
X600Y2277D02*
X2277Y600D01*
X600Y2100D02*
X2100Y600D01*
X600Y1216D02*
X1216Y600D01*
X600Y863D02*
X863Y600D01*
X600Y686D02*
X686Y600D01*
X600Y1570D02*
X1570Y600D01*
X600Y1393D02*
X1393Y600D01*
X17737Y34051D02*
X19086Y35400D01*
X17737Y34228D02*
X18909Y35400D01*
X17737Y33875D02*
X19263Y35400D01*
X17709Y33670D02*
X19440Y35400D01*
X17709Y34730D02*
X18379Y35400D01*
X17661Y34858D02*
X18202Y35400D01*
X17737Y34405D02*
X18733Y35400D01*
X17736Y34580D02*
X18556Y35400D01*
X17737Y30516D02*
X22622Y35400D01*
X17737Y30692D02*
X22445Y35400D01*
X19096D02*
X23400Y31096D01*
X18389Y35400D02*
X23400Y30389D01*
X17681Y30990D02*
X22091Y35400D01*
X17626Y31112D02*
X21915Y35400D01*
X17720Y30852D02*
X22268Y35400D01*
X16388Y31641D02*
X20147Y35400D01*
X16350Y31780D02*
X19970Y35400D01*
X16864Y31587D02*
X20677Y35400D01*
X16676Y31575D02*
X20500Y35400D01*
X17595Y34969D02*
X18026Y35400D01*
X17514Y35065D02*
X17849Y35400D01*
X16293Y31900D02*
X19793Y35400D01*
X16221Y32004D02*
X19617Y35400D01*
X17382Y31398D02*
X21384Y35400D01*
X17276Y31468D02*
X21208Y35400D01*
X17557Y31219D02*
X21738Y35400D01*
X17476Y31315D02*
X21561Y35400D01*
X17020Y31566D02*
X20854Y35400D01*
X16413Y31489D02*
X20324Y35400D01*
X17156Y31525D02*
X21031Y35400D01*
X22632D02*
X23400Y34632D01*
X22455Y35400D02*
X23400Y34455D01*
X22278Y35400D02*
X23400Y34278D01*
X22102Y35400D02*
X23400Y34102D01*
X23339Y35400D02*
X23400Y35339D01*
X23162Y35400D02*
X23400Y35162D01*
X22985Y35400D02*
X23400Y34985D01*
X22809Y35400D02*
X23400Y34809D01*
X21394Y35400D02*
X23400Y33394D01*
X21218Y35400D02*
X23400Y33218D01*
X21041Y35400D02*
X23400Y33041D01*
X20864Y35400D02*
X23400Y32864D01*
X21925Y35400D02*
X23400Y33925D01*
X21748Y35400D02*
X23400Y33748D01*
X21571Y35400D02*
X23400Y33571D01*
X20334Y35400D02*
X23400Y32334D01*
X20157Y35400D02*
X23400Y32157D01*
X19980Y35400D02*
X23400Y31980D01*
X19803Y35400D02*
X23400Y31803D01*
X20687Y35400D02*
X23400Y32687D01*
X20511Y35400D02*
X23400Y32511D01*
X19273Y35400D02*
X23400Y31273D01*
X18920Y35400D02*
X23400Y30920D01*
X18743Y35400D02*
X23400Y30743D01*
X18566Y35400D02*
X23400Y30566D01*
X19627Y35400D02*
X23400Y31627D01*
X17737Y30339D02*
X22799Y35400D01*
X19450D02*
X23400Y31450D01*
X17027Y35286D02*
X17142Y35400D01*
X16975D02*
X17097Y35278D01*
X17307Y35212D02*
X17495Y35400D01*
X17178Y35260D02*
X17318Y35400D01*
X16621D02*
X16764Y35258D01*
X16445Y35400D02*
X16636Y35208D01*
X16840Y35276D02*
X16965Y35400D01*
X16798D02*
X16913Y35285D01*
X16538Y35150D02*
X16788Y35400D01*
X16268D02*
X16526Y35142D01*
X17418Y35146D02*
X17672Y35400D01*
X17152D02*
X17382Y35170D01*
X15914Y35400D02*
X16351Y34963D01*
X15738Y35400D02*
X16286Y34852D01*
X16091Y35400D02*
X16431Y35060D01*
X15384Y35400D02*
X16214Y34570D01*
X14677Y35400D02*
X16213Y33864D01*
X15561Y35400D02*
X16238Y34722D01*
X14500Y35400D02*
X16245Y33655D01*
X15207Y35400D02*
X16212Y34395D01*
X11243Y31976D02*
X14667Y35400D01*
X15030D02*
X16212Y34218D01*
X14854Y35400D02*
X16212Y34041D01*
X11394Y31597D02*
X15197Y35400D01*
X11362Y31742D02*
X15020Y35400D01*
X11396Y31422D02*
X15374Y35400D01*
X11335Y31185D02*
X15551Y35400D01*
X11318Y35400D02*
X14877Y31842D01*
X11311Y31867D02*
X14843Y35400D01*
X11495Y35400D02*
X14941Y31954D01*
X17737Y33875D02*
Y34525D01*
X16212Y33875D02*
Y34525D01*
X15920Y32233D02*
X16816Y33129D01*
X15787Y32278D02*
X16681Y33172D01*
X16135Y32095D02*
X17180Y33141D01*
X16035Y32172D02*
X16975Y33112D01*
X16348Y31785D02*
X16579Y31554D01*
X15813Y30729D02*
X15913Y30629D01*
X15662Y30702D02*
X15913Y30452D01*
X12732Y35400D02*
X15885Y32248D01*
X12556Y35400D02*
X15658Y32298D01*
X15632Y32299D02*
X16565Y33232D01*
X15440Y32284D02*
X16464Y33309D01*
X12202Y35400D02*
X15344Y32258D01*
X12025Y35400D02*
X15221Y32204D01*
X12379Y35400D02*
X15487Y32292D01*
X13086Y35400D02*
X16902Y31584D01*
X12909Y35400D02*
X16727Y31582D01*
X13263Y35400D02*
X17126Y31536D01*
X11848Y35400D02*
X15113Y32135D01*
X11672Y35400D02*
X15020Y32051D01*
X15116Y32137D02*
X16379Y33400D01*
X17959Y29500D02*
X23400Y34941D01*
X17782Y29500D02*
X23400Y35118D01*
X18313Y29500D02*
X23400Y34587D01*
X18136Y29500D02*
X23400Y34764D01*
X18212Y35400D02*
X23400Y30212D01*
X18036Y35400D02*
X23400Y30036D01*
X17859Y35400D02*
X23400Y29859D01*
X17737Y33930D02*
X22168Y29500D01*
X23400D02*
Y35400D01*
X19020Y29500D02*
X23400Y33880D01*
X19373Y29500D02*
X23400Y33527D01*
X19197Y29500D02*
X23400Y33703D01*
X18666Y29500D02*
X23400Y34234D01*
X18490Y29500D02*
X23400Y34410D01*
X18843Y29500D02*
X23400Y34057D01*
X17682Y35400D02*
X23400Y29682D01*
X17636Y29708D02*
X23329Y35400D01*
X17606Y29500D02*
X23400Y35294D01*
X17505Y35400D02*
X23400Y29505D01*
X17737Y30162D02*
X22975Y35400D01*
X17725Y29973D02*
X23152Y35400D01*
X17620Y34932D02*
X23052Y29500D01*
X17329Y35400D02*
X23229Y29500D01*
X17737Y34461D02*
X22698Y29500D01*
X17728Y34647D02*
X22875Y29500D01*
X17737Y34107D02*
X22345Y29500D01*
X17737Y34284D02*
X22521Y29500D01*
X17729Y33762D02*
X21991Y29500D01*
X17694Y33621D02*
X21814Y29500D01*
X17638Y33499D02*
X21638Y29500D01*
X21672D02*
X23400Y31228D01*
X21495Y29500D02*
X23400Y31405D01*
X22025Y29500D02*
X23400Y30875D01*
X21848Y29500D02*
X23400Y31052D01*
X20964Y29500D02*
X23400Y31936D01*
X20788Y29500D02*
X23400Y32112D01*
X21318Y29500D02*
X23400Y31582D01*
X21141Y29500D02*
X23400Y31759D01*
X22909Y29500D02*
X23400Y29991D01*
X22732Y29500D02*
X23400Y30168D01*
X23263Y29500D02*
X23400Y29637D01*
X23086Y29500D02*
X23400Y29814D01*
X22379Y29500D02*
X23400Y30521D01*
X22202Y29500D02*
X23400Y30698D01*
X22555Y29500D02*
X23400Y30345D01*
X17567Y33394D02*
X21461Y29500D01*
X17480Y33304D02*
X21284Y29500D01*
X17490D02*
X23400D01*
X17379Y33228D02*
X21107Y29500D01*
X17262Y33169D02*
X20930Y29500D01*
X16755Y33145D02*
X20400Y29500D01*
X17126Y33128D02*
X20754Y29500D01*
X16964Y33113D02*
X20577Y29500D01*
X20257D02*
X23400Y32643D01*
X20081Y29500D02*
X23400Y32819D01*
X20611Y29500D02*
X23400Y32289D01*
X20434Y29500D02*
X23400Y32466D01*
X19727Y29500D02*
X23400Y33173D01*
X19550Y29500D02*
X23400Y33350D01*
X19904Y29500D02*
X23400Y32996D01*
X13439Y35400D02*
X19339Y29500D01*
X13540D02*
X15005Y30965D01*
X13363Y29500D02*
X14928Y31065D01*
X12833Y29500D02*
X14801Y31468D01*
X12656Y29500D02*
X14816Y31660D01*
X13186Y29500D02*
X14867Y31180D01*
X13009Y29500D02*
X14822Y31313D01*
X13970Y35400D02*
X19870Y29500D01*
X13793Y35400D02*
X19693Y29500D01*
X14323Y35400D02*
X20223Y29500D01*
X14147Y35400D02*
X20047Y29500D01*
X17686Y30976D02*
X19163Y29500D01*
X13616Y35400D02*
X19516Y29500D01*
X13717D02*
X15096Y30879D01*
X11306Y31877D02*
X13683Y29500D01*
X11242D02*
X16212Y34471D01*
X11397Y31432D02*
X13329Y29500D01*
X11392Y31614D02*
X13506Y29500D01*
X11370Y31282D02*
X13152Y29500D01*
X11321Y31154D02*
X12975Y29500D01*
X11256Y31042D02*
X12799Y29500D01*
X11177Y30945D02*
X12622Y29500D01*
X11949D02*
X16220Y33771D01*
X11772Y29500D02*
X16212Y33941D01*
X12302Y29500D02*
X16308Y33506D01*
X12126Y29500D02*
X16254Y33628D01*
X11595Y29500D02*
X16212Y34117D01*
X11418Y29500D02*
X16212Y34294D01*
X12479Y29500D02*
X14963Y31984D01*
X17737Y30125D02*
Y30675D01*
X17602Y29646D02*
X17748Y29500D01*
X15913Y30125D02*
Y30675D01*
X16015Y29500D02*
X16094Y29579D01*
X17737Y30572D02*
X18809Y29500D01*
X17734Y30752D02*
X18986Y29500D01*
X17737Y30218D02*
X18456Y29500D01*
X17737Y30395D02*
X18632Y29500D01*
X17734Y30045D02*
X18279Y29500D01*
X17708Y29894D02*
X18102Y29500D01*
X17663Y29763D02*
X17925Y29500D01*
X15209Y30802D02*
X15913Y30098D01*
X14600Y29500D02*
X15836Y30736D01*
X15478Y30709D02*
X15913Y30275D01*
X14424Y29500D02*
X15624Y30700D01*
X14070Y29500D02*
X15320Y30750D01*
X13893Y29500D02*
X15200Y30807D01*
X14247Y29500D02*
X15459Y30712D01*
X15484Y29500D02*
X15930Y29946D01*
X15308Y29500D02*
X15913Y30105D01*
X15838Y29500D02*
X16025Y29687D01*
X15661Y29500D02*
X15969Y29808D01*
X14954Y29500D02*
X15913Y30459D01*
X14777Y29500D02*
X15913Y30635D01*
X15131Y29500D02*
X15913Y30282D01*
X10500Y32294D02*
X13606Y35400D01*
X10247Y32218D02*
X13429Y35400D01*
X10827Y32267D02*
X13960Y35400D01*
X10679Y32296D02*
X13783Y35400D01*
X9749Y35079D02*
X10070Y35400D01*
X9651Y35157D02*
X9894Y35400D01*
X9983Y34606D02*
X10778Y35400D01*
X9833Y34986D02*
X10247Y35400D01*
X10965D02*
X14802Y31562D01*
X10788Y35400D02*
X14809Y31378D01*
X11141Y35400D02*
X14829Y31713D01*
X10611Y35400D02*
X14902Y31109D01*
X11161Y32071D02*
X14490Y35400D01*
X10954Y32217D02*
X14136Y35400D01*
X11064Y32151D02*
X14313Y35400D01*
X9537Y35221D02*
X9717Y35400D01*
X5500D02*
X23400Y35400D01*
X6545Y35400D02*
X9962Y31983D01*
X6368Y35400D02*
X9893Y31875D01*
X9250Y35287D02*
X9363Y35400D01*
X9197D02*
X9315Y35282D01*
X9406Y35266D02*
X9540Y35400D01*
X9374D02*
X9567Y35206D01*
X9010Y31512D02*
X12899Y35400D01*
X6192D02*
X9840Y31751D01*
X9438Y31585D02*
X13252Y35400D01*
X9255Y31580D02*
X13076Y35400D01*
X5838D02*
X9717Y31521D01*
X5661Y35400D02*
X9480Y31581D01*
X6015Y35400D02*
X9807Y31607D01*
X9988Y34080D02*
X11308Y35400D01*
X9988Y34256D02*
X11131Y35400D01*
X9988Y33903D02*
X11485Y35400D01*
X9969Y33707D02*
X11661Y35400D01*
X9953Y34752D02*
X10601Y35400D01*
X9901Y34877D02*
X10424Y35400D01*
X9988Y33875D02*
Y34525D01*
Y34433D02*
X10954Y35400D01*
X9804Y33379D02*
X10977Y32206D01*
X10288Y30490D02*
X10503Y30706D01*
X9724Y31518D02*
X9806Y31600D01*
X10288Y30667D02*
X10358Y30738D01*
X9715Y33291D02*
X10714Y32292D01*
X9611Y33218D02*
X10532Y32297D01*
X9492Y33161D02*
X10382Y32270D01*
X8963Y33159D02*
X10045Y32077D01*
X9352Y33123D02*
X10254Y32221D01*
X9185Y33114D02*
X10142Y32156D01*
X9591Y31562D02*
X9882Y31853D01*
X5500Y35384D02*
X9300Y31584D01*
X8843Y35400D02*
X8992Y35251D01*
X8666Y35400D02*
X8868Y35199D01*
X9055Y35268D02*
X9187Y35400D01*
X9020D02*
X9138Y35282D01*
X8136Y35400D02*
X8590Y34946D01*
X7429Y35400D02*
X8462Y34366D01*
X8490Y35400D02*
X8760Y35129D01*
X8313Y35400D02*
X8668Y35045D01*
X7075Y35400D02*
X8462Y34013D01*
X5920Y32664D02*
X8656Y35400D01*
X5977Y32367D02*
X9010Y35400D01*
X5964Y32531D02*
X8833Y35400D01*
X5772Y32869D02*
X8303Y35400D01*
X5671Y32945D02*
X8126Y35400D01*
X7252D02*
X8462Y34190D01*
X5500Y34365D02*
X6535Y35400D01*
X5500Y34542D02*
X6358Y35400D01*
X5500Y34012D02*
X6888Y35400D01*
X5500Y34188D02*
X6712Y35400D01*
X5500Y35072D02*
X5828Y35400D01*
X5500Y35249D02*
X5651Y35400D01*
X5500Y34719D02*
X6181Y35400D01*
X5500Y34895D02*
X6005Y35400D01*
X5500Y33304D02*
X7596Y35400D01*
X5500Y33481D02*
X7419Y35400D01*
X5551Y33002D02*
X7949Y35400D01*
X5500Y33128D02*
X7772Y35400D01*
X5500Y33835D02*
X7065Y35400D01*
X5500Y33017D02*
Y35400D01*
Y33658D02*
X7242Y35400D01*
X7783D02*
X8483Y34700D01*
X5855Y32776D02*
X8479Y35400D01*
X7959D02*
X8527Y34832D01*
X6722Y35400D02*
X8509Y33613D01*
X7606Y35400D02*
X8463Y34543D01*
X6899Y35400D02*
X8464Y33835D01*
X8462Y33875D02*
Y34525D01*
X5500Y33086D02*
X5608Y32979D01*
X5918Y32132D02*
X8482Y34695D01*
X5500Y30653D02*
X8497Y33649D01*
X5500Y33440D02*
X8462Y30477D01*
X5500Y33617D02*
X8462Y30654D01*
X5500Y31713D02*
X5608Y31822D01*
X5500Y35031D02*
X9017Y31514D01*
X5500Y35208D02*
X9149Y31559D01*
X5500Y34677D02*
X8797Y31381D01*
X5500Y34854D02*
X8900Y31454D01*
X5500Y31537D02*
X8462Y34499D01*
X5500Y34501D02*
X8705Y31295D01*
X5500Y31360D02*
X8462Y34322D01*
X5500Y34147D02*
X8561Y31086D01*
X5500Y34324D02*
X8627Y31197D01*
X5500Y33793D02*
X8474Y30819D01*
X5500Y33970D02*
X8509Y30962D01*
X5500Y31006D02*
X8462Y33969D01*
X5500Y31183D02*
X8462Y34146D01*
X5500Y30830D02*
X8467Y33796D01*
X10269Y29941D02*
X15727Y35400D01*
X10154Y29650D02*
X15904Y35400D01*
X10434Y35400D02*
X15943Y29891D01*
X9904Y35400D02*
X15804Y29500D01*
X9982Y34615D02*
X15097Y29500D01*
X9906Y34867D02*
X15274Y29500D01*
X9975Y33738D02*
X14213Y29500D01*
X9936Y33600D02*
X14036Y29500D01*
X10257Y35400D02*
X16157Y29500D01*
X10081Y35400D02*
X15981Y29500D01*
X11065D02*
X16224Y34660D01*
X9988Y34432D02*
X14920Y29500D01*
X9988Y34079D02*
X14566Y29500D01*
X9988Y34256D02*
X14743Y29500D01*
X9988Y33902D02*
X14390Y29500D01*
X9550Y35400D02*
X15450Y29500D01*
X5500Y28531D02*
X12369Y35400D01*
X9878Y33481D02*
X13859Y29500D01*
X9727Y35400D02*
X15627Y29500D01*
X5500Y28885D02*
X12015Y35400D01*
X5500Y29062D02*
X11838Y35400D01*
X5500Y28531D02*
X12369Y35400D01*
X5500Y28708D02*
X12192Y35400D01*
X9535Y28500D02*
X16434Y35400D01*
X9358Y28500D02*
X16258Y35400D01*
X9888Y28500D02*
X16350Y34962D01*
X9711Y28500D02*
X16611Y35400D01*
X9181Y28500D02*
X16081Y35400D01*
X5645Y28500D02*
X12545Y35400D01*
X5822Y28500D02*
X12722Y35400D01*
X10535Y30703D02*
X11738Y29500D01*
X10305Y30757D02*
X11561Y29500D01*
X10288Y30420D02*
X11208Y29500D01*
X10288Y30597D02*
X11384Y29500D01*
X10288Y30314D02*
X10678Y30704D01*
X10288Y30137D02*
X10915Y30765D01*
X10288Y30243D02*
X11031Y29500D01*
X10288Y30125D02*
Y30675D01*
X11083Y30862D02*
X12445Y29500D01*
X10975Y30793D02*
X12268Y29500D01*
X11000D02*
X16160D01*
X10851Y30740D02*
X12092Y29500D01*
X10707Y30707D02*
X11915Y29500D01*
X10286Y30068D02*
X10927Y29427D01*
X10263Y29914D02*
X10839Y29339D01*
X10220Y29781D02*
X10750Y29250D01*
X10161Y29662D02*
X10662Y29162D01*
X10090Y29557D02*
X10573Y29073D01*
X10005Y29465D02*
X10485Y28985D01*
X9909Y29385D02*
X10397Y28897D01*
X10000Y28500D02*
X11000Y29500D01*
X9799Y29317D02*
X10308Y28808D01*
X9676Y29264D02*
X10220Y28720D01*
X9536Y29227D02*
X10132Y28632D01*
X9374Y29212D02*
X10043Y28543D01*
X9175Y29235D02*
X9910Y28500D01*
X5500D02*
X10000D01*
X5977Y32433D02*
X8485Y29925D01*
X5964Y32269D02*
X8620Y29613D01*
X5551Y31798D02*
X8849Y28500D01*
X5919Y32668D02*
X8462Y30124D01*
X5500Y30788D02*
X7788Y28500D01*
X8462Y30125D02*
Y30675D01*
X5500Y30611D02*
X7611Y28500D01*
X5920Y32136D02*
X9556Y28500D01*
X5855Y32024D02*
X9379Y28500D01*
X5772Y31931D02*
X9202Y28500D01*
X5671Y31855D02*
X9026Y28500D01*
X6176D02*
X8470Y30795D01*
X5999Y28500D02*
X8538Y31040D01*
X6352Y28500D02*
X8462Y30610D01*
X5500Y29769D02*
X8911Y33180D01*
X5500Y29946D02*
X8798Y33243D01*
X5500Y29415D02*
X9198Y33113D01*
X5500Y29592D02*
X9043Y33135D01*
X5500Y30299D02*
X8616Y33416D01*
X5500Y30476D02*
X8548Y33524D01*
X5500Y33263D02*
X8462Y30301D01*
X5500Y30122D02*
X8700Y33322D01*
X5500Y31672D02*
X8672Y28500D01*
X5500Y29239D02*
X9393Y33131D01*
X5500Y31318D02*
X8318Y28500D01*
X5500Y31495D02*
X8495Y28500D01*
X5500Y31142D02*
X8142Y28500D01*
X5500D02*
Y31783D01*
Y30965D02*
X7965Y28500D01*
X7943D02*
X8834Y29390D01*
X7767Y28500D02*
X8738Y29471D01*
X7236Y28500D02*
X8526Y29790D01*
X7060Y28500D02*
X8485Y29925D01*
X7590Y28500D02*
X8655Y29565D01*
X7413Y28500D02*
X8584Y29671D01*
X9004Y28500D02*
X9850Y29346D01*
X8863Y29370D02*
X9733Y28500D01*
X8827D02*
X9559Y29231D01*
X8651Y28500D02*
X9363Y29213D01*
X8297Y28500D02*
X9064Y29267D01*
X8120Y28500D02*
X8942Y29322D01*
X8474Y28500D02*
X9203Y29229D01*
X5500Y30258D02*
X7258Y28500D01*
X5500Y30435D02*
X7435Y28500D01*
X5500Y29904D02*
X6904Y28500D01*
X5500Y30081D02*
X7081Y28500D01*
X5500Y29551D02*
X6551Y28500D01*
X5500Y29727D02*
X6727Y28500D01*
X5500Y29374D02*
X6374Y28500D01*
X6706D02*
X8462Y30256D01*
X6529Y28500D02*
X8462Y30433D01*
X6883Y28500D02*
X8464Y30081D01*
X5500Y29197D02*
X6197Y28500D01*
X5500Y28844D02*
X5844Y28500D01*
X5500Y29020D02*
X6020Y28500D01*
X5500Y28667D02*
X5667Y28500D01*
D73*
X21850Y1391D02*
X21983Y1525D01*
X22250D01*
X22383Y1391D01*
Y1258D01*
X22250Y1125D01*
X22117D01*
X22250D01*
X22383Y992D01*
Y858D01*
X22250Y725D01*
X21983D01*
X21850Y858D01*
X-17250Y-37350D02*
Y-38250D01*
X-16650D01*
X-16200Y-37650D02*
X-15900D01*
X-15750Y-37800D01*
Y-38250D01*
X-16200D01*
X-16350Y-38100D01*
X-16200Y-37950D01*
X-15750D01*
X-15451Y-37650D02*
Y-38100D01*
X-15301Y-38250D01*
X-14851D01*
Y-38400D01*
X-15001Y-38550D01*
X-15151D01*
X-14851Y-38250D02*
Y-37650D01*
X-14101Y-38250D02*
X-14401D01*
X-14551Y-38100D01*
Y-37800D01*
X-14401Y-37650D01*
X-14101D01*
X-13951Y-37800D01*
Y-37950D01*
X-14551D01*
X-13651Y-37650D02*
Y-38250D01*
Y-37950D01*
X-13501Y-37800D01*
X-13351Y-37650D01*
X-13201D01*
X-11852Y-37500D02*
X-11702Y-37350D01*
X-11402D01*
X-11252Y-37500D01*
Y-37650D01*
X-11402Y-37800D01*
X-11552D01*
X-11402D01*
X-11252Y-37950D01*
Y-38100D01*
X-11402Y-38250D01*
X-11702D01*
X-11852Y-38100D01*
D74*
X2800Y32400D02*
Y33275D01*
Y32400D02*
X3675D01*
X1925D02*
X2800D01*
Y31525D02*
Y32400D01*
X16975Y34200D02*
X17675D01*
X16975D02*
Y35225D01*
Y33175D02*
Y34200D01*
X16275D02*
X16975D01*
X16825Y30400D02*
Y31525D01*
Y30400D02*
X17675D01*
X15975D02*
X16825D01*
X9225Y34200D02*
X9925D01*
X9225D02*
Y35225D01*
Y33175D02*
Y34200D01*
X8525D02*
X9225D01*
X9375Y30400D02*
X10225D01*
X9375D02*
Y31525D01*
Y29275D02*
Y30400D01*
X8525D02*
X9375D01*
D78*
X9225Y34200D02*
D03*
X16975D02*
D03*
D79*
X9375Y30400D02*
D03*
X16825D02*
D03*
D80*
X20500Y32500D02*
D03*
D82*
X2800Y32400D02*
D03*
D84*
X13570Y17460D02*
D03*
X13400Y19325D02*
D03*
X14700Y19800D02*
D03*
Y21700D02*
D03*
X12550Y19800D02*
D03*
Y21700D02*
D03*
X10650Y23475D02*
D03*
Y21575D02*
D03*
X8450Y23500D02*
D03*
X8200Y21600D02*
D03*
X16800Y11350D02*
D03*
X16600Y8500D02*
D03*
X17950Y15750D02*
D03*
Y20250D02*
D03*
Y17250D02*
D03*
Y21750D02*
D03*
Y18750D02*
D03*
Y12750D02*
D03*
Y14250D02*
D03*
X14800Y24950D02*
D03*
X11700Y11600D02*
D03*
X10850Y25700D02*
D03*
X8800Y10500D02*
D03*
X3500Y10550D02*
D03*
X13000Y24500D02*
D03*
X13600D02*
D03*
X5900Y23250D02*
D03*
Y17250D02*
D03*
Y20250D02*
D03*
Y18750D02*
D03*
X5700Y25650D02*
D03*
X5900Y21750D02*
D03*
X9000Y24800D02*
D03*
X8400D02*
D03*
X7100Y25650D02*
D03*
X11100Y28100D02*
D03*
X11800Y28750D02*
D03*
X11800Y28300D02*
D03*
X13100Y28400D02*
D03*
X7100Y28750D02*
D03*
X5700D02*
D03*
M02*
