M48
;Layer_Color=10526880
;FILE_FORMAT=4:3
METRIC,LZ
;TYPE=PLATED
T01F00S00C0.200
T04F00S00C0.900
T05F00S00C1.000
T06F00S00C2.600
%
T01
X00035Y001055
X000351Y0011469
X00051Y001055
X00059Y001275
Y001425
Y001575
X00059Y001725
Y001875
Y002025
Y002175
X0006653Y0022188
Y0022812
X00059Y002325
X00057Y002565
X00071
X00084Y00248
X0009
X000845Y00235
Y002283
Y00222
X00082Y00216
X001065Y0021575
Y0022225
Y002285
Y0023475
X001085Y00257
X001275Y002635
X0013Y00245
X00136
X00148Y002495
X00147Y00217
Y0021075
Y002045
Y00198
X00134Y0019325
Y00187
Y0018075
X001357Y001746
X001255Y00198
Y002045
Y0021075
Y00217
X001795Y002175
X00178Y0021
X001795Y002025
X001695Y0019911
Y0019286
X001795Y001875
Y001725
X001735Y0016825
Y00162
Y0015325
Y00147
Y00138
Y0013175
X001795Y001275
Y001425
Y001575
X00168Y001135
X00166Y00085
X00117Y00116
X000945Y001205
X000855
X00088Y00105
X000895Y002685
X00084
X00071Y002875
X00057
X00111Y00281
X00118Y00283
X00118Y002875
X00131Y00284
X00168Y00271
X00185Y002125
X002025Y002205
X00207Y00225
T04
X00028Y00324
X000534
T05
X00206Y000282
Y000536
Y00079
X001572Y0006375
X001318Y00064
X001064
X00081
Y00038
X001064
X001318
X001572Y0003775
X001285Y001315
X00103
T06
X00035Y00035
X00205Y00325
M30
